<?xml version="1.0" standalone="no"?>
<!DOCTYPE svg PUBLIC "-//W3C//DTD SVG 1.1//EN" "http://www.w3.org/Graphics/SVG/1.1/DTD/svg11.dtd">
<svg xmlns="http://www.w3.org/2000/svg">
<defs >
<font id="Arimo" horiz-adv-x="1190" ><font-face
    font-family="Arimo Medium"
    units-per-em="2048"
    panose-1="2 11 6 4 2 2 2 2 2 4"
    ascent="1854"
    descent="-434"
    alphabetic="0" />
<glyph unicode=" " horiz-adv-x="569" />
<glyph unicode="!" horiz-adv-x="607" d="M418 1409L391 407H216L189 1409H418ZM413 224V0H188V224H413Z" />
<glyph unicode="&quot;" horiz-adv-x="808" d="M705 1409L681 943H513L491 1409H705ZM317 1409L293 943H126L103 1409H317Z" />
<glyph unicode="#" horiz-adv-x="1139" d="M328 399L245 0H121L203 399H18V521H230L306 877H69V999H331L418 1399H542L456 999H801L887 1399H1013L926 999H1121V877H900L825 521H1070V399H800L714 0H588L672 399H328ZM356 521H700L775 877H433L356 521Z" />
<glyph unicode="$" horiz-adv-x="1139" d="M519 20Q305 29 183 120T24 389L222 429Q245 312 317 255T519 188V649Q467 662 419 675T331 704T264 733Q170 785 126 858T81 1041Q81 1199 194 1288T519 1385V1517H638V1385Q762 1379 848 1345T990 1241T1075 1055L871
1020Q853 1112 798 1163T638 1225V811Q705 795 762 779T870 743Q995 691 1051 610T1107 401Q1107 231 986 131T638 21V-145H519V20ZM283 1043Q283 988 305 952Q328 913 374 888T519 836V1227Q283 1214 283 1043ZM906 399Q906 459 883 497T815 561Q771 586 638 621V187Q768
196 837 249T906 399Z" />
<glyph unicode="%" horiz-adv-x="1821" d="M399 1422Q725 1422 725 976Q725 758 642 642T394 525Q231 525 149 640T66 976Q66 1200 146 1311T399 1422ZM1459 1409L535 0H363L1285 1409H1459ZM554 976Q554 1146 519 1222T399 1299Q309 1299 272 1224T235 976Q235
808 272 731T397 653Q479 653 516 731T554 976ZM1754 433Q1754 217 1670 102T1423 -13Q1260 -13 1178 100T1095 433Q1095 660 1174 772T1427 884Q1596 884 1675 770T1754 433ZM1584 433Q1584 606 1548 682T1427 758Q1340 758 1303 683T1265 433Q1265 266 1302 189T1425
112Q1508 112 1546 190T1584 433Z" />
<glyph unicode="&amp;" horiz-adv-x="1404" d="M78 376Q78 513 162 619T419 804Q385 871 363 951T341 1099Q341 1251 434 1334T700 1417Q857 1417 951 1340T1045 1129Q1045 1056 1011 995T906 879Q862 846 797 811T642 738Q748 544 919 352Q1029 516 1085 746L1252
694Q1188 453 1046 241Q1138 152 1244 152Q1314 152 1361 168V10Q1307 -12 1223 -12Q1136 -12 1058 19T915 113Q755 -20 540 -20Q320 -20 199 84T78 376ZM869 1128Q869 1195 823 1237T698 1280Q609 1280 562 1231T515 1098Q515 995 576 871Q699 921 755 958Q812
994 840 1035T869 1128ZM793 227Q699 335 624 442T489 657Q275 563 275 378Q275 265 348 198T548 131Q617 131 682 157T793 227Z" />
<glyph unicode="&apos;" horiz-adv-x="423" d="M319 1409L295 943H128L106 1409H319Z" />
<glyph unicode="(" horiz-adv-x="682" d="M464 -424Q345 -283 269 -136T156 176T119 529Q119 721 155 885T269 1196T464 1484H673Q496 1269 414 1038T332 530Q332 347 367 184T478 -128T673 -424H464Z" />
<glyph unicode=")" horiz-adv-x="682" d="M9 -424Q128 -279 203 -130T314 182T350 530Q350 808 268 1038T9 1484H218Q338 1343 414 1196T526 885T563 532Q563 341 527 177T414 -135T218 -424H9Z" />
<glyph unicode="*" horiz-adv-x="797" d="M689 764L548 676L400 932L246 677L105 766L294 1002L24 1071L77 1226L334 1120L320 1409H483L468 1121L722 1224L775 1071L504 1002L689 764Z" />
<glyph unicode="+" horiz-adv-x="1196" d="M684 595V174H511V595H95V767H511V1188H684V767H1101V595H684Z" />
<glyph unicode="," horiz-adv-x="569" d="M401 56Q401 -55 380 -133T313 -280H169Q220 -211 248 -139T276 0H174V248H401V56Z" />
<glyph unicode="-" horiz-adv-x="682" d="M594 634V446H87V634H594Z" />
<glyph unicode="." horiz-adv-x="569" d="M397 248V0H171V248H397Z" />
<glyph unicode="/" horiz-adv-x="569" d="M562 1484L196 -27H7L378 1484H562Z" />
<glyph unicode="0" horiz-adv-x="1139" d="M1058 705Q1058 351 934 166T566 -20Q324 -20 202 164T80 705Q80 1071 197 1250T573 1430Q822 1430 940 1248T1058 705ZM842 705Q842 904 816 1026T731 1203T572 1259Q471 1259 410 1204T322 1027T295 705Q295 509 322
387T410 208T568 152Q714 152 778 285T842 705Z" />
<glyph unicode="1" horiz-adv-x="1139" d="M1053 172V0H147V172H503V1215L178 993V1180L518 1409H717V172H1053Z" />
<glyph unicode="2" horiz-adv-x="1139" d="M1043 179V0H92V150Q139 255 206 340T354 500T523 644Q574 684 615 721T687 792Q740 847 771 905T803 1033Q803 1141 742 1199T570 1257Q463 1257 398 1199T319 1033L102 1050Q123 1228 246 1329T569 1430Q787 1430 904
1329T1021 1041Q1021 951 982 869T870 709Q826 662 756 602T593 467Q493 386 429 317T335 179H1043Z" />
<glyph unicode="3" horiz-adv-x="1139" d="M1054 390Q1054 194 928 87T569 -21Q351 -21 221 78T68 369L287 389Q320 154 569 154Q693 154 763 215T834 399Q834 507 752 567T514 627H414V806H510Q649 806 723 865T798 1032Q798 1136 738 1196T559 1257Q450 1257
384 1200T306 1040L92 1056Q112 1232 237 1331T562 1430Q777 1430 896 1331T1016 1056Q1016 922 940 838T719 724V720Q879 702 966 614T1054 390Z" />
<glyph unicode="4" horiz-adv-x="1139" d="M901 308V0H698V308H42V472L670 1409H901V473H1095V308H901ZM229 473H698V1001Q698 1050 699 1101T704 1189Q684 1150 665 1119T625 1056L229 473Z" />
<glyph unicode="5" horiz-adv-x="1139" d="M1063 462Q1063 239 928 110T555 -20Q353 -20 230 69T76 327L291 349Q317 250 384 201T559 152Q691 152 766 233T842 458Q842 583 767 660T564 737Q496 737 438 714T325 639H117L164 1409H981V1237H359L333 821Q445 911
612 911Q749 911 850 855T1007 699T1063 462Z" />
<glyph unicode="6" horiz-adv-x="1139" d="M1054 461Q1054 237 932 109T593 -20Q351 -20 223 156T94 672Q94 1042 226 1236T605 1430Q771 1430 872 1356T1016 1131L813 1098Q766 1259 601 1259Q461 1259 383 1126T305 734Q353 820 439 865T635 910Q828 910 941
789T1054 461ZM838 453Q838 595 770 671T580 748Q465 748 395 679T324 492Q324 392 357 315T450 194T586 150Q704 150 771 230T838 453Z" />
<glyph unicode="7" horiz-adv-x="1139" d="M1040 1237Q937 1077 858 945T728 701Q648 529 606 358T564 0H341Q341 147 372 291T471 595Q528 729 617 884T837 1230H99V1409H1040V1237Z" />
<glyph unicode="8" horiz-adv-x="1139" d="M1059 394Q1059 198 933 89T570 -20Q339 -20 210 87T81 392Q81 529 159 622T364 737V741Q249 767 182 856T114 1065Q114 1230 235 1330T566 1430Q781 1430 902 1332T1024 1063Q1024 944 956 855T772 743V739Q907 717
983 626T1059 394ZM803 1051Q803 1275 566 1275Q332 1275 332 1051Q332 937 393 878T568 819Q684 819 743 873T803 1051ZM837 413Q837 537 767 600T566 663Q440 663 371 596T301 409Q301 271 369 204T572 136Q707 136 772 202T837 413Z" />
<glyph unicode="9" horiz-adv-x="1139" d="M1049 731Q1049 364 915 172T534 -20Q362 -20 261 53T115 286L318 317Q367 150 537 150Q679 150 757 284T838 670Q799 585 706 535T501 484Q376 484 283 542T139 707T88 957Q88 1178 213 1304T564 1430Q805 1430 927
1256T1049 731ZM819 913Q819 1070 748 1164T558 1259Q440 1259 373 1178T305 956Q305 814 372 731T557 648Q629 648 688 681T783 775T819 913Z" />
<glyph unicode=":" horiz-adv-x="607" d="M416 1066V834H190V1066H416ZM416 232V0H190V232H416Z" />
<glyph unicode=";" horiz-adv-x="607" d="M419 1066V834H193V1066H419ZM419 56Q419 -55 398 -133T331 -280H188Q240 -208 267 -137T295 0H193V232H419V56Z" />
<glyph unicode="&lt;" horiz-adv-x="1196" d="M1102 322V144L96 553V797L1102 1206V1027L252 675L1102 322Z" />
<glyph unicode="=" horiz-adv-x="1196" d="M1101 1024V851H95V1024H1101ZM1101 499V326H95V499H1101Z" />
<glyph unicode="&gt;" horiz-adv-x="1196" d="M1102 553L96 144V322L945 675L96 1027V1206L1102 797V553Z" />
<glyph unicode="?" horiz-adv-x="1176" d="M1086 1030Q1086 922 1040 844T872 677L793 620Q654 520 652 393H446Q449 477 479 538T557 646T663 734Q725 778 772 818T845 906T871 1021Q871 1126 800 1187T600 1248Q473 1248 396 1182T305 1002L87 1014Q114 1213
247 1321T598 1430Q825 1430 955 1324T1086 1030ZM664 224V0H438V224H664Z" />
<glyph unicode="@" horiz-adv-x="2052" d="M1894 745Q1894 560 1835 410Q1775 260 1670 177T1436 94Q1339 94 1287 138T1234 269Q1235 286 1235 303T1238 338H1232Q1171 221 1074 158T866 94Q709 94 623 196T536 479Q536 642 601 784Q666 926 781 1008T1037 1091Q1248
1091 1326 912H1332L1371 1069H1527L1411 563Q1374 399 1374 314Q1374 266 1395 244T1454 221Q1534 221 1603 290Q1673 359 1713 478T1753 743Q1753 920 1676 1058Q1599 1195 1455 1269T1117 1343Q876 1343 690 1237Q505 1130 400 930T294 481Q294 287 374 140Q452
-8 599 -85T943 -163Q1088 -163 1236 -125T1541 -4L1598 -119Q1446 -209 1280 -253T940 -297Q701 -297 521 -201Q341 -106 244 72T146 481Q146 761 272 991Q397 1220 618 1347T1115 1474Q1356 1474 1532 1384Q1708 1293 1801 1128T1894 745ZM1274 738Q1274 838
1211 899T1042 961Q943 961 866 898Q789 835 745 722T701 481Q701 363 749 296T896 228Q970 228 1038 271T1160 389Q1197 441 1222 507T1261 636T1274 738Z" />
<glyph unicode="A" horiz-adv-x="1404" d="M400 395L250 0H20L574 1409H835L1383 0H1156L1007 395H400ZM703 1241Q688 1190 667 1126T629 1019L460 568H947L775 1026Q761 1063 742 1119T703 1241Z" />
<glyph unicode="B" horiz-adv-x="1404" d="M1301 399Q1301 209 1162 105T774 0H158V1409H714Q965 1409 1092 1322T1219 1063Q1219 940 1150 856T951 742Q1120 722 1210 632T1301 399ZM992 1034Q992 1142 920 1188T709 1234H383V820H710Q854 820 923 873T992 1034ZM1073
416Q1073 648 745 648H383V175H759Q923 175 998 235T1073 416Z" />
<glyph unicode="C" horiz-adv-x="1479" d="M798 162Q1085 162 1219 447L1408 362Q1323 173 1165 77T792 -20Q574 -20 419 68T180 320T97 711Q97 938 178 1099T414 1345T787 1430Q1020 1430 1172 1338T1394 1067L1186 1003Q1143 1120 1039 1184T791 1249Q568 1249
447 1107T326 711Q326 542 382 419T545 229T798 162Z" />
<glyph unicode="D" horiz-adv-x="1479" d="M1385 718Q1385 494 1298 333T1057 86T699 0H158V1409H638Q996 1409 1190 1230T1385 718ZM1158 718Q1158 968 1023 1099T634 1231H383V178H676Q823 178 931 244T1098 431T1158 718Z" />
<glyph unicode="E" horiz-adv-x="1366" d="M1281 180V0H158V1409H1240V1229H383V810H1179V631H383V180H1281Z" />
<glyph unicode="F" horiz-adv-x="1251" d="M383 553V0H158V1409H1171V1229H383V734H1148V553H383Z" />
<glyph unicode="G" horiz-adv-x="1593" d="M811 160Q941 160 1056 199T1241 304V538H846V718H1449V221Q1337 107 1169 44T808 -20Q585 -20 426 68T182 320T97 711Q97 1056 281 1243T804 1430Q1043 1430 1193 1347T1418 1086L1206 1023Q1151 1139 1050 1194T801
1249Q569 1249 447 1109T325 711Q325 453 453 307T811 160Z" />
<glyph unicode="H" horiz-adv-x="1479" d="M383 637V0H158V1409H383V825H1096V1409H1322V0H1096V637H383Z" />
<glyph unicode="I" horiz-adv-x="569" d="M397 1409V0H172V1409H397Z" />
<glyph unicode="J" horiz-adv-x="1062" d="M479 -20Q287 -20 177 73T32 361L254 396Q272 282 330 221T481 160Q579 160 634 227T690 424V1228H415V1409H914V429Q914 219 799 100T479 -20Z" />
<glyph unicode="K" horiz-adv-x="1404" d="M383 531V0H158V1409H383V725L1048 1409H1312L712 802L1382 0H1108L564 669L383 531Z" />
<glyph unicode="L" horiz-adv-x="1176" d="M1110 180V0H158V1409H383V180H1110Z" />
<glyph unicode="M" horiz-adv-x="1706" d="M358 911V0H158V1409H457L791 495Q810 434 828 367T856 257Q864 288 876 332T902 418T922 482L1254 1409H1548V0H1346V911Q1346 973 1348 1052T1356 1214Q1327 1110 1304 1032T1262 902L935 0H775L445 902L350 1214Q353
1125 355 1050T358 911Z" />
<glyph unicode="N" horiz-adv-x="1479" d="M358 901V0H158V1409H418L1134 239Q1120 421 1120 520V1409H1322V0H1053L346 1162Q350 1091 354 1026T358 901Z" />
<glyph unicode="O" horiz-adv-x="1593" d="M1499 711Q1499 487 1413 323T1168 70T794 -20Q577 -20 420 68T178 320T93 711Q93 937 176 1097T417 1344T796 1430Q1015 1430 1172 1345T1414 1099T1499 711ZM1269 711Q1269 962 1145 1105T796 1249Q569 1249 445 1108T321
711Q321 542 377 419T540 228T794 161Q1023 161 1146 304T1269 711Z" />
<glyph unicode="P" horiz-adv-x="1366" d="M1271 978Q1271 843 1211 743T1040 587T776 531H383V0H158V1409H764Q1006 1409 1138 1296T1271 978ZM1044 975Q1044 1231 738 1231H383V708H746Q893 708 968 775T1044 975Z" />
<glyph unicode="Q" horiz-adv-x="1593" d="M1499 711Q1499 516 1433 365T1244 120T946 -3Q985 -120 1050 -172T1220 -224Q1278 -224 1336 -212L1335 -368Q1233 -392 1136 -392Q981 -392 881 -305T717 -14Q519 -1 380 91T167 341T93 711Q93 937 176 1097T417 1344T796
1430Q1019 1430 1176 1343T1416 1095T1499 711ZM1269 711Q1269 962 1145 1105T796 1249Q569 1249 445 1108T321 711Q321 542 377 419T540 228T794 160Q1023 160 1146 304T1269 711Z" />
<glyph unicode="R" horiz-adv-x="1479" d="M383 568V0H158V1409H834Q1077 1409 1209 1302T1341 1000Q1341 846 1252 739T1008 602L1402 0H1144L791 568H383ZM1114 995Q1114 1111 1037 1171T811 1231H383V745H819Q961 745 1037 811T1114 995Z" />
<glyph unicode="S" horiz-adv-x="1366" d="M1277 395Q1277 196 1124 88T687 -20Q166 -20 82 348L300 388Q331 266 428 210T695 153Q870 153 962 211T1055 382Q1055 448 1023 490T930 559Q881 582 808 600T640 639Q531 664 461 685T347 730T269 780Q211 826 180
891T148 1047Q148 1232 288 1331T691 1430Q939 1430 1067 1354T1242 1096L1022 1061Q994 1166 914 1215T688 1264Q531 1264 449 1213T367 1060Q367 998 399 958T494 890Q553 863 743 821Q830 801 907 781T1046 734Q1088 717 1124 694T1188 641Q1230 596 1253 536T1277
395Z" />
<glyph unicode="T" horiz-adv-x="1251" d="M738 1229V0H513V1229H38V1409H1212V1229H738Z" />
<glyph unicode="U" horiz-adv-x="1479" d="M728 -20Q548 -20 418 44T217 228T146 517V1409H372V536Q372 351 464 256T730 160Q910 160 1008 259T1107 548V1409H1332V534Q1332 361 1259 237T1051 47T728 -20Z" />
<glyph unicode="V" horiz-adv-x="1366" d="M1355 1409L799 0H568L11 1409H247L604 446Q625 391 644 327T685 191Q709 274 728 338T765 446L1120 1409H1355Z" />
<glyph unicode="W" horiz-adv-x="1933" d="M901 871L673 0H404L7 1409H239L473 525Q493 450 511 369T546 205Q555 245 567 300T592 412T616 512L853 1409H1085L1314 547Q1336 461 1355 374T1390 205Q1404 264 1418 324T1446 437T1468 525L1695 1409H1928L1530
0H1261L1035 868Q1021 920 1005 995T968 1169Q960 1120 946 1060T920 948T901 871Z" />
<glyph unicode="X" horiz-adv-x="1366" d="M687 598L281 0H37L557 735L78 1409H322L688 874L1046 1409H1290L826 740L1331 0H1087L687 598Z" />
<glyph unicode="Y" horiz-adv-x="1366" d="M795 582V0H570V582L42 1409H285L683 763L1082 1409H1325L795 582Z" />
<glyph unicode="Z" horiz-adv-x="1251" d="M1189 181V0H64V165L890 1228H138V1409H1144V1248L318 181H1189Z" />
<glyph unicode="[" horiz-adv-x="607" d="M588 -275V-425H136V1484H588V1335H340V-275H588Z" />
<glyph unicode="\" horiz-adv-x="569" d="M192 1484L563 -27H374L7 1484H192Z" />
<glyph unicode="]" horiz-adv-x="607" d="M471 1484V-425H19V-275H267V1335H19V1484H471Z" />
<glyph unicode="^" horiz-adv-x="1039" d="M22 620L397 1409H640L1018 620H832L517 1293L205 620H22Z" />
<glyph unicode="_" horiz-adv-x="1139" d="M1160 -242V-355H-27V-242H1160Z" />
<glyph unicode="`" horiz-adv-x="682" d="M545 1219V1195H426L93 1472V1506H317L545 1219Z" />
<glyph unicode="a" horiz-adv-x="1139" d="M407 -20Q246 -20 162 66T78 303Q78 471 188 560T532 655L771 659V716Q771 840 722 895T564 950Q457 950 409 911T349 784L126 800Q175 1102 571 1102Q775 1102 880 1006T986 730V288Q986 204 1007 166T1083 127Q1113
127 1143 134V9Q1103 -1 1068 -6T991 -11Q889 -11 842 41T787 202H781Q715 84 625 32T407 -20ZM771 523L592 520Q475 517 418 495Q360 473 330 428T299 309Q299 224 342 180T464 135Q553 135 622 177Q691 219 731 292T771 445V523Z" />
<glyph unicode="b" horiz-adv-x="1176" d="M1091 546Q1091 268 989 124T687 -20Q567 -20 485 26T353 170H351Q351 149 349 112T345 42T340 0H133Q136 34 138 91T140 231V1484H353V1064Q353 1028 352 988T349 903H353Q402 1007 486 1054T693 1102Q894 1102 992
962T1091 546ZM867 542Q867 754 809 849T624 944Q484 944 418 843T352 531Q352 332 417 233T622 133Q750 133 808 231T867 542Z" />
<glyph unicode="c" horiz-adv-x="1062" d="M567 -20Q333 -20 209 124T85 540Q85 811 210 956T567 1102Q741 1102 855 1013T1000 766L782 752Q769 840 715 892T561 944Q430 944 369 851T308 546Q308 340 372 240T564 139Q655 139 716 190T791 347L1006 335Q992
227 933 148T781 24T567 -20Z" />
<glyph unicode="d" horiz-adv-x="1176" d="M838 0Q836 11 833 42T828 110T826 175H822Q774 73 690 27T482 -20Q283 -20 184 121T85 537Q85 816 187 959T489 1102Q610 1102 692 1056T823 913H825L823 1053V1484H1037V227Q1037 154 1038 98T1043 0H838ZM309 541Q309
329 367 233T553 137Q692 137 758 240T824 552Q824 753 759 851T555 950Q426 950 368 853T309 541Z" />
<glyph unicode="e" horiz-adv-x="1139" d="M309 498Q309 321 380 227T585 133Q688 133 751 175T837 286L1030 249Q927 -20 581 -20Q339 -20 212 123T85 547Q85 815 213 958T577 1102Q814 1102 934 955T1055 516V498H309ZM840 648Q828 806 762 880T574 954Q454
954 385 873T311 648H840Z" />
<glyph unicode="f" horiz-adv-x="607" d="M398 931V0H185V931H31V1082H185V1201Q185 1349 254 1416T466 1483Q543 1483 610 1469V1318Q565 1326 529 1326Q459 1326 429 1293T398 1175V1082H610V931H398Z" />
<glyph unicode="g" horiz-adv-x="1176" d="M564 -428Q380 -428 270 -357T130 -153L345 -125Q362 -196 419 -235T570 -275Q698 -275 761 -199T824 30L825 201H823Q774 98 686 47T475 -5Q279 -5 182 130T85 543Q85 822 188 961T495 1100Q611 1100 694 1049T824 901H827Q827
922 829 962T834 1039T840 1082H1043Q1037 1010 1037 849V32Q1037 -197 918 -312T564 -428ZM825 546Q825 733 752 840T558 947Q429 947 368 850T307 544Q307 337 365 243T555 149Q678 149 751 254T825 546Z" />
<glyph unicode="h" horiz-adv-x="1176" d="M351 887Q409 999 492 1050T698 1102Q873 1102 959 1006T1045 709V0H831V659Q831 805 781 872T618 939Q500 939 428 851T356 618V0H142V1484H356V1092Q356 1053 355 1012T352 937T348 887H351Z" />
<glyph unicode="i" horiz-adv-x="493" d="M353 1484V1300H139V1484H353ZM353 1082V0H139V1082H353Z" />
<glyph unicode="j" horiz-adv-x="493" d="M353 1484V1300H139V1484H353ZM97 -425Q12 -425 -44 -416V-257Q-29 -259 -15 -261T14 -263Q84 -263 111 -229T139 -91V1082H353V-132Q353 -282 289 -353T97 -425Z" />
<glyph unicode="k" horiz-adv-x="1062" d="M353 392V0H140V1484H353V583L799 1082H1040L621 631L1065 0H822L482 493L353 392Z" />
<glyph unicode="l" horiz-adv-x="493" d="M353 1484V0H140V1484H353Z" />
<glyph unicode="m" horiz-adv-x="1744" d="M355 611V0H142V847Q142 940 141 996T136 1082H338Q340 1063 342 1027T346 953T348 887H351Q407 1005 483 1053T667 1102Q790 1102 863 1050T963 887H967Q1023 1002 1101 1052T1295 1102Q1457 1102 1534 1007T1612 710V0H1400V660Q1400
812 1358 875T1214 939Q1108 939 1046 855T984 616V0H772V660Q772 812 730 875T585 939Q480 939 418 852T355 611Z" />
<glyph unicode="n" horiz-adv-x="1176" d="M356 611V0H142V847Q142 940 141 996T136 1082H338Q340 1065 342 1031T345 958T348 887H351Q412 1003 495 1052T698 1102Q874 1102 959 1006T1045 710V0H831V660Q831 811 782 875T618 939Q498 939 427 851T356 611Z" />
<glyph unicode="o" horiz-adv-x="1176" d="M1092 542Q1092 265 960 123T584 -20Q341 -20 213 126T84 542Q84 816 213 959T590 1102Q843 1102 967 963T1092 542ZM868 542Q868 756 803 852T593 949Q445 949 377 850T308 542Q308 339 375 236T581 133Q733 133 800
233T868 542Z" />
<glyph unicode="p" horiz-adv-x="1176" d="M1091 546Q1091 267 989 124T687 -20Q442 -20 354 169H349Q353 155 353 -5V-425H140V852Q140 933 138 990T133 1082H340Q342 1075 344 1043T349 971T351 907H355Q402 1007 484 1054T693 1102Q890 1102 990 965T1091 546ZM867
543Q867 755 808 850T623 945Q487 945 420 844T352 531Q352 331 417 232T621 133Q748 133 807 229T867 543Z" />
<glyph unicode="q" horiz-adv-x="1176" d="M85 537Q85 815 188 958T490 1102Q611 1102 692 1057T825 912Q825 936 827 976T832 1051T838 1091H1043Q1040 1054 1039 984T1037 812V-425H824V18L828 179H826Q775 74 693 27T482 -20Q282 -20 184 122T85 537ZM824 551Q824
750 759 849T555 949Q427 949 368 851T309 541Q309 329 368 233T553 137Q692 137 758 242T824 551Z" />
<glyph unicode="r" horiz-adv-x="720" d="M356 553V0H142V829Q142 897 141 959T136 1082H338Q340 1048 342 1013T345 947T347 893T348 858H352Q385 960 420 1013Q454 1062 499 1082T610 1102Q652 1102 687 1091V902Q642 914 583 914Q474 914 415 822T356 553Z" />
<glyph unicode="s" horiz-adv-x="1062" d="M985 305Q985 150 865 65T531 -20Q322 -20 210 48T62 259L250 292Q273 209 338 171T531 133Q662 133 722 171T782 287Q782 347 739 383T595 445Q491 471 425 489T319 521T255 549Q183 588 144 646T105 789Q105 939 215
1019T533 1100Q717 1100 826 1033T964 826L773 804Q759 874 700 910T533 947Q418 947 363 914T308 811Q308 759 342 726T470 672Q595 643 703 610T864 541Q922 501 953 445T985 305Z" />
<glyph unicode="t" horiz-adv-x="607" d="M588 11Q496 -17 388 -17Q275 -17 217 46T158 237V931H29V1082H167L232 1328H371V1082H572V931H371V289Q371 210 398 177T488 143Q520 143 588 157V11Z" />
<glyph unicode="u" horiz-adv-x="1176" d="M825 195Q765 79 682 30T478 -20Q302 -20 217 74T131 372V1082H345V422Q345 267 395 205T558 143Q679 143 749 231T820 471V1082H1034V235Q1034 149 1035 90T1041 0H838Q835 27 833 73T829 195H825Z" />
<glyph unicode="v" horiz-adv-x="1062" d="M1055 1082L652 0H398L7 1082H234L456 411Q463 389 480 329T526 170Q536 200 548 242T574 328T598 404L829 1082H1055Z" />
<glyph unicode="w" horiz-adv-x="1517" d="M718 729L529 0H291L-4 1082H203L373 369Q381 333 392 285T413 184Q423 232 433 279T456 373L644 1082H873L1055 375Q1065 335 1076 287T1099 184Q1110 232 1121 283T1142 377L1318 1082H1522L1220 0H982L799 730Q790
766 781 812T759 917Q752 883 741 830T718 729Z" />
<glyph unicode="x" horiz-adv-x="1062" d="M529 427L249 0H20L409 557L38 1082H272L529 683L784 1082H1020L650 559L1043 0H807L529 427Z" />
<glyph unicode="y" horiz-adv-x="1062" d="M222 -425Q139 -425 80 -413V-257Q124 -263 168 -263Q257 -263 321 -204T437 7L9 1082H236L444 514Q468 453 495 372T543 211Q568 289 592 361T640 508L831 1082H1056L636 -19Q605 -99 575 -160T515 -262Q456 -347 385
-386T222 -425Z" />
<glyph unicode="z" horiz-adv-x="1024" d="M931 161V0H83V158L656 922H119V1082H901V924L328 161H931Z" />
<glyph unicode="{" horiz-adv-x="722" d="M528 -425Q398 -425 326 -348T253 -130V220Q253 336 200 393T34 454V604Q147 608 200 665T253 838V1189Q253 1332 323 1408T528 1484H683V1335H622Q531 1335 492 1282T453 1122V784Q453 690 399 621T254 532V529Q345 508
399 440T453 276V-62Q453 -168 492 -221T622 -275H683V-425H528Z" />
<glyph unicode="|" horiz-adv-x="546" d="M372 1484V-441H174V1484H372Z" />
<glyph unicode="}" horiz-adv-x="722" d="M37 -275H96Q188 -275 227 -222T267 -62V276Q267 372 320 440T464 529V532Q377 552 322 619T267 784V1122Q267 1229 228 1282T96 1335H37V1484H191Q324 1484 394 1408T465 1189V838Q465 724 518 666T687 604V454Q572 451
519 393T465 220V-130Q465 -269 393 -347T191 -425H37V-275Z" />
<glyph unicode="~" horiz-adv-x="1196" d="M847 541Q776 541 704 562T557 610Q426 656 339 656Q270 656 212 635T88 568V734Q200 818 354 818Q425 818 512 794Q555 781 602 767T701 735Q730 725 778 713T864 701Q994 701 1109 793V621Q1049 578 991 560T847 541Z" />
<glyph unicode="&#xa0;" horiz-adv-x="569" />
<glyph unicode="&#xa1;" horiz-adv-x="682" d="M456 1082V858H231V1082H456ZM226 -327L253 675H428L455 -327H226Z" />
<glyph unicode="&#xa2;" horiz-adv-x="1139" d="M593 298Q687 298 749 351T827 509L1043 497Q1023 350 922 256T664 145V-31H527V144Q323 163 215 303T107 693Q107 939 214 1082T527 1244V1409H664V1244Q816 1228 912 1142T1036 912L818 898Q804 988 748 1040T591
1092Q455 1092 391 998T327 699Q327 497 394 398T593 298Z" />
<glyph unicode="&#xa3;" horiz-adv-x="1139" d="M1109 328Q1087 171 994 86T753 0H57V171Q150 221 191 298T232 491V618H46V761H229V1030Q229 1227 333 1328T639 1430Q793 1430 892 1367T1029 1180L835 1126Q814 1194 764 1231T643 1268Q537 1268 487 1211T436
1028V761H803V618H436V504Q436 390 392 304T262 172H711Q804 172 855 217T922 353L1109 328Z" />
<glyph unicode="&#xa4;" horiz-adv-x="1139" d="M136 684Q136 816 208 926L97 1037L219 1157L328 1046Q437 1120 571 1120Q702 1120 811 1047L921 1157L1043 1034L934 925Q1007 813 1007 684Q1007 552 933 444L1044 333L924 209L812 322Q702 250 571 250Q436 250
330 322L215 207L94 329L207 443Q136 552 136 684ZM314 686Q314 615 349 557T442 465T571 430Q641 430 699 464T792 557T827 686Q827 757 792 815T699 908T571 943Q501 943 443 909T350 816T314 686Z" />
<glyph unicode="&#xa5;" horiz-adv-x="1139" d="M673 281V0H464V281H98V414H464L466 571H98V703H403L1 1409H230L568 779L909 1409H1138L735 703H1041V571H673V414H1041V281H673Z" />
<glyph unicode="&#xa6;" horiz-adv-x="546" d="M372 1474V696H174V1474H372ZM372 338V-441H174V338H372Z" />
<glyph unicode="&#xa7;" horiz-adv-x="1139" d="M584 1465Q764 1465 874 1397T1011 1200L824 1179Q811 1249 750 1285T584 1322Q463 1322 403 1286T342 1180Q342 1135 371 1102T454 1045Q509 1020 637 990Q787 955 870 913Q949 871 992 812T1035 669Q1035 572
977 498T823 399Q928 354 976 290T1025 135Q1025 -19 907 -105T570 -191Q356 -191 243 -124T94 86L281 119Q301 33 366 -7T570 -47Q701 -47 770 -7T840 115Q840 169 811 204T722 267Q664 294 501 333Q303 379 218 457T132 647Q132 738 191 808T355 911Q261 945
208 1012T155 1165Q155 1307 264 1386T584 1465ZM850 642Q850 714 784 761Q717 809 543 847Q438 839 379 791T320 665Q320 619 349 586T431 527Q484 502 616 469Q728 472 789 517T850 642Z" />
<glyph unicode="&#xa8;" horiz-adv-x="682" d="M624 1408V1212H443V1408H624ZM217 1408V1212H35V1408H217Z" />
<glyph unicode="&#xa9;" horiz-adv-x="1509" d="M1477 707Q1477 514 1381 346Q1284 177 1116 81T754 -16Q558 -16 388 85Q219 186 125 352T31 707Q31 901 128 1068Q225 1236 393 1333T754 1430Q948 1430 1117 1333Q1285 1236 1381 1069T1477 707ZM1379 707Q1379
874 1295 1018Q1212 1160 1067 1244T754 1328Q590 1328 446 1246Q302 1164 218 1020T133 707Q133 539 217 395Q300 251 443 168T754 84Q922 84 1067 167Q1212 251 1295 395T1379 707ZM513 709Q513 561 580 479T766 397Q917 397 987 549L1117 510Q1056 388 971 335T766
281Q576 281 472 393T367 709Q367 912 468 1021T758 1130Q1007 1130 1103 914L975 879Q945 945 890 979T761 1013Q640 1013 577 936T513 709Z" />
<glyph unicode="&#xaa;" horiz-adv-x="758" d="M259 676Q155 676 94 732T32 889Q32 1116 335 1121L503 1124V1178Q503 1252 471 1286T367 1321Q306 1321 270 1294T225 1200L63 1209Q79 1313 158 1370T366 1428Q508 1428 583 1366T659 1183V898Q659 844 671 819T718
794Q728 794 739 796T763 801V695Q709 681 668 681Q595 681 555 718T510 819H506Q434 676 259 676ZM309 793Q389 793 446 848T503 978V1031L380 1027Q272 1022 234 992T195 902Q195 793 309 793Z" />
<glyph unicode="&#xab;" horiz-adv-x="1139" d="M1053 172V141H860L549 505V570L860 940H1051V907L741 537L1053 172ZM588 172V141H396L86 505V570L396 940H586V907L278 537L588 172Z" />
<glyph unicode="&#xac;" horiz-adv-x="1196" d="M1100 767V167H929V595H95V767H1100Z" />
<glyph unicode="&#xad;" horiz-adv-x="682" d="M594 634V446H87V634H594Z" />
<glyph unicode="&#xae;" horiz-adv-x="1509" d="M1477 707Q1477 514 1381 346Q1284 177 1116 81T754 -16Q558 -16 388 85Q219 186 125 352T31 707Q31 901 128 1068Q225 1236 393 1333T754 1430Q948 1430 1117 1333Q1285 1236 1381 1069T1477 707ZM1379 707Q1379
874 1295 1018Q1212 1160 1067 1244T754 1328Q590 1328 446 1246Q302 1164 218 1020T133 707Q133 539 217 395Q300 251 443 168T754 84Q922 84 1067 167Q1212 251 1295 395T1379 707ZM606 620V292H462V1117H777Q922 1117 998 1054T1074 879Q1074 779 1023 719T890
637L1108 292H944L752 620H606ZM929 877Q929 942 885 976T764 1010H606V727H775Q851 727 890 767T929 877Z" />
<glyph unicode="&#xaf;" horiz-adv-x="1131" d="M1148 1546V1452H-17V1546H1148Z" />
<glyph unicode="&#xb0;" horiz-adv-x="819" d="M708 1134Q708 1053 668 986T560 878T409 838Q328 838 260 878T152 985T111 1133Q111 1214 151 1281T259 1388T409 1428Q493 1428 560 1389T668 1284T708 1134ZM582 1133Q582 1207 533 1258T409 1309Q336 1309 286
1258T235 1133Q235 1061 286 1009T409 957Q481 957 531 1008T582 1133Z" />
<glyph unicode="&#xb1;" horiz-adv-x="1124" d="M649 689V312H476V689H60V860H476V1236H649V860H1065V689H649ZM1065 171V0H60V171H1065Z" />
<glyph unicode="&#xb2;" horiz-adv-x="682" d="M642 728V607H46L44 716Q75 782 135 843T298 973Q391 1037 431 1086T471 1188Q471 1245 441 1277T348 1310Q288 1310 251 1278T207 1183L53 1190Q66 1294 145 1358T352 1423Q480 1423 554 1364T629 1197Q629 1058
452 933Q394 892 354 862T291 810Q243 768 226 728H642Z" />
<glyph unicode="&#xb3;" horiz-adv-x="682" d="M641 828Q641 718 564 657T347 595Q206 595 127 650T33 816L186 829Q202 707 346 707Q486 707 486 838Q486 960 314 960H255V1075H310Q384 1075 425 1106T467 1196Q467 1249 435 1279T340 1310Q280 1310 244 1279T202
1190L50 1202Q63 1306 140 1364T345 1423Q474 1423 547 1366T620 1215Q620 1144 580 1092T452 1022V1020Q541 1011 591 961T641 828Z" />
<glyph unicode="&#xb4;" horiz-adv-x="682" d="M530 1472L196 1195H77V1219L306 1506H530V1472Z" />
<glyph unicode="&#xb5;" horiz-adv-x="1196" d="M138 -425V1082H352V423Q352 281 402 213T561 144Q676 144 739 227T803 471V1082H1017L1016 284Q1016 203 1035 169T1098 134Q1125 134 1155 141V5Q1116 -6 1085 -11T1019 -17Q923 -17 875 29T820 175H816Q769 73
701 27T542 -20Q480 -20 430 1T352 63V-425H138Z" />
<glyph unicode="&#xb6;" horiz-adv-x="1113" d="M566 1293V-264H439V694Q271 694 174 786T77 1049Q77 1218 175 1313T447 1409H1032V1293H903V-264H776V1293H566Z" />
<glyph unicode="&#xb7;" horiz-adv-x="682" d="M435 723V474H209V723H435Z" />
<glyph unicode="&#xb8;" horiz-adv-x="682" d="M489 -247Q489 -339 417 -385T205 -431Q149 -431 111 -426V-322Q155 -328 197 -328Q340 -328 340 -251Q340 -214 309 -196T211 -177Q190 -177 177 -177T156 -179L220 0H339L302 -94Q396 -98 442 -138T489 -247Z" />
<glyph unicode="&#xb9;" horiz-adv-x="682" d="M631 718V607H81V718H283V1288L90 1160V1280L290 1411H431V718H631Z" />
<glyph unicode="&#xba;" horiz-adv-x="748" d="M720 1052Q720 873 632 775T373 676Q210 676 122 773T33 1052Q33 1232 121 1330T377 1428Q546 1428 633 1333T720 1052ZM554 1052Q554 1190 514 1250T380 1310Q283 1310 242 1249T200 1052Q200 920 241 856T372 792Q471
792 512 855T554 1052Z" />
<glyph unicode="&#xbb;" horiz-adv-x="1139" d="M742 141H551V172L861 537L553 907V940H742L1053 570V505L742 141ZM280 141H86V172L397 537L88 907V940H280L588 570V505L280 141Z" />
<glyph unicode="&#xbc;" horiz-adv-x="1708" d="M875 718V607H325V718H527V1288L334 1160V1280L534 1411H675V718H875ZM1393 1409L510 0H344L1230 1409H1393ZM1505 167V2H1356V167H971V290L1334 806H1505V289H1613V167H1505ZM1359 671Q1345 645 1327 614T1283
545L1103 289H1356V546Q1356 577 1357 608T1359 671Z" />
<glyph unicode="&#xbd;" horiz-adv-x="1708" d="M875 718V607H325V718H527V1288L334 1160V1280L534 1411H675V718H875ZM1387 1409L504 0H338L1224 1409H1387ZM1640 122V1H1044L1042 110Q1073 176 1133 237T1296 367Q1389 431 1429 480T1469 582Q1469 639 1439
671T1346 704Q1286 704 1249 672T1205 577L1051 584Q1064 688 1143 752T1350 817Q1478 817 1552 758T1627 591Q1627 452 1450 327Q1392 286 1352 256T1289 204Q1241 162 1224 122H1640Z" />
<glyph unicode="&#xbe;" horiz-adv-x="1708" d="M1407 1409L524 0H358L1244 1409H1407ZM1505 167V2H1356V167H971V290L1334 806H1505V289H1613V167H1505ZM1359 671Q1345 645 1327 614T1283 545L1103 289H1356V546Q1356 577 1357 608T1359 671ZM691 828Q691 718
614 657T397 595Q256 595 177 650T83 816L236 829Q252 707 396 707Q536 707 536 838Q536 960 364 960H305V1075H360Q434 1075 475 1106T517 1196Q517 1249 485 1279T390 1310Q330 1310 294 1279T252 1190L100 1202Q113 1306 190 1364T395 1423Q524 1423 597 1366T670
1215Q670 1144 630 1092T502 1022V1020Q591 1011 641 961T691 828Z" />
<glyph unicode="&#xbf;" horiz-adv-x="1251" d="M774 1082V858H547V1082H774ZM125 52Q125 160 173 239T340 405L420 462Q557 562 560 689H766Q763 605 733 544T655 437T549 349Q487 305 441 265T368 177T341 61Q341 -44 412 -105T611 -166Q738 -166 815 -100T907
80L1124 68Q1098 -131 965 -239T614 -348Q386 -348 256 -242T125 52Z" />
<glyph unicode="&#xc0;" horiz-adv-x="1404" d="M400 395L250 0H20L574 1409H835L1383 0H1156L1007 395H400ZM703 1241Q688 1190 667 1126T629 1019L460 568H947L775 1026Q761 1063 742 1119T703 1241ZM889 1554V1530H757L437 1755V1789H661L889 1554Z" />
<glyph unicode="&#xc1;" horiz-adv-x="1404" d="M400 395L250 0H20L574 1409H835L1383 0H1156L1007 395H400ZM703 1241Q688 1190 667 1126T629 1019L460 568H947L775 1026Q761 1063 742 1119T703 1241ZM1009 1755L689 1530H556V1554L785 1789H1009V1755Z" />
<glyph unicode="&#xc2;" horiz-adv-x="1404" d="M400 395L250 0H20L574 1409H835L1383 0H1156L1007 395H400ZM703 1241Q688 1190 667 1126T629 1019L460 568H947L775 1026Q761 1063 742 1119T703 1241ZM358 1530V1553L600 1805H812L1045 1553V1530H922L708 1673H706L481
1530H358Z" />
<glyph unicode="&#xc3;" horiz-adv-x="1404" d="M400 395L250 0H20L574 1409H835L1383 0H1156L1007 395H400ZM703 1241Q688 1190 667 1126T629 1019L460 568H947L775 1026Q761 1063 742 1119T703 1241ZM863 1530Q824 1530 783 1548T702 1588Q661 1611 623 1630T552
1650Q502 1650 477 1622T441 1530H334Q349 1689 404 1747T545 1806Q587 1806 630 1787T715 1743Q754 1722 789 1704T855 1686Q902 1686 929 1714T966 1806H1072Q1059 1655 1007 1593T863 1530Z" />
<glyph unicode="&#xc4;" horiz-adv-x="1404" d="M400 395L250 0H20L574 1409H835L1383 0H1156L1007 395H400ZM703 1241Q688 1190 667 1126T629 1019L460 568H947L775 1026Q761 1063 742 1119T703 1241ZM999 1726V1530H825V1726H999ZM586 1726V1530H411V1726H586Z" />
<glyph unicode="&#xc5;" horiz-adv-x="1404" d="M400 395L250 0H20L574 1409H835L1383 0H1156L1007 395H400ZM703 1241Q688 1190 667 1126T629 1019L460 568H947L775 1026Q761 1063 742 1119T703 1241ZM950 1548Q950 1481 917 1425T829 1336T704 1302Q636 1302
580 1335T491 1425T458 1548Q458 1617 491 1672T581 1761T704 1794Q771 1794 827 1761T916 1672T950 1548ZM836 1548Q836 1603 798 1641T704 1679Q649 1679 611 1641T572 1548Q572 1493 610 1454T704 1414Q760 1414 798 1453T836 1548Z" />
<glyph unicode="&#xc6;" horiz-adv-x="2048" d="M441 395L252 0H17L708 1409H1922V1229H1182V810H1861V633H1182V180H1963V0H956V395H441ZM522 568H956V1239H835L522 568Z" />
<glyph unicode="&#xc7;" horiz-adv-x="1479" d="M798 162Q1085 162 1219 447L1408 362Q1323 173 1165 77T792 -20Q574 -20 419 68T180 320T97 711Q97 938 178 1099T414 1345T787 1430Q1020 1430 1172 1338T1394 1067L1186 1003Q1143 1120 1039 1184T791 1249Q568
1249 447 1107T326 711Q326 542 382 419T545 229T798 162ZM992 -247Q992 -339 920 -385T708 -431Q652 -431 614 -426V-322Q658 -328 700 -328Q843 -328 843 -251Q843 -214 812 -196T714 -177Q693 -177 680 -177T659 -179L723 0H842L805 -94Q899 -98 945 -138T992
-247Z" />
<glyph unicode="&#xc8;" horiz-adv-x="1366" d="M1281 180V0H158V1409H1240V1229H383V810H1179V631H383V180H1281ZM868 1554V1530H736L416 1755V1789H640L868 1554Z" />
<glyph unicode="&#xc9;" horiz-adv-x="1366" d="M1281 180V0H158V1409H1240V1229H383V810H1179V631H383V180H1281ZM993 1755L673 1530H540V1554L769 1789H993V1755Z" />
<glyph unicode="&#xca;" horiz-adv-x="1366" d="M1281 180V0H158V1409H1240V1229H383V810H1179V631H383V180H1281ZM365 1530V1553L607 1805H819L1052 1553V1530H929L715 1673H713L488 1530H365Z" />
<glyph unicode="&#xcb;" horiz-adv-x="1366" d="M1281 180V0H158V1409H1240V1229H383V810H1179V631H383V180H1281ZM998 1726V1530H824V1726H998ZM585 1726V1530H410V1726H585Z" />
<glyph unicode="&#xcc;" horiz-adv-x="569" d="M397 1409V0H172V1409H397ZM701 1554V1530H569L249 1755V1789H473L701 1554Z" />
<glyph unicode="&#xcd;" horiz-adv-x="569" d="M397 1409V0H172V1409H397ZM582 1755L262 1530H129V1554L358 1789H582V1755Z" />
<glyph unicode="&#xce;" horiz-adv-x="569" d="M397 1409V0H172V1409H397ZM197 1530V1553L439 1805H651L884 1553V1530H761L547 1673H545L320 1530H197Z" />
<glyph unicode="&#xcf;" horiz-adv-x="569" d="M397 1409V0H172V1409H397ZM835 1726V1530H661V1726H835ZM422 1726V1530H247V1726H422Z" />
<glyph unicode="&#xd0;" horiz-adv-x="1479" d="M1385 718Q1385 493 1298 333T1057 86T699 0H158V629H12V805H158V1409H638Q996 1409 1190 1230T1385 718ZM1158 718Q1158 967 1024 1098T634 1230H383V805H773V629H383V179H676Q825 179 933 244T1099 431T1158 718Z" />
<glyph unicode="&#xd1;" horiz-adv-x="1479" d="M358 901V0H158V1409H418L1134 239Q1120 421 1120 520V1409H1322V0H1053L346 1162Q350 1091 354 1026T358 901ZM908 1530Q869 1530 828 1548T747 1588Q706 1611 668 1630T597 1650Q547 1650 522 1622T486 1530H379Q394
1689 449 1747T590 1806Q632 1806 675 1787T760 1743Q799 1722 834 1704T900 1686Q947 1686 974 1714T1011 1806H1117Q1104 1655 1052 1593T908 1530Z" />
<glyph unicode="&#xd2;" horiz-adv-x="1593" d="M1499 711Q1499 487 1413 323T1168 70T794 -20Q577 -20 420 68T178 320T93 711Q93 937 176 1097T417 1344T796 1430Q1015 1430 1172 1345T1414 1099T1499 711ZM1269 711Q1269 962 1145 1105T796 1249Q569 1249 445
1108T321 711Q321 542 377 419T540 228T794 161Q1023 161 1146 304T1269 711ZM997 1554V1530H865L545 1755V1789H769L997 1554Z" />
<glyph unicode="&#xd3;" horiz-adv-x="1593" d="M1499 711Q1499 487 1413 323T1168 70T794 -20Q577 -20 420 68T178 320T93 711Q93 937 176 1097T417 1344T796 1430Q1015 1430 1172 1345T1414 1099T1499 711ZM1269 711Q1269 962 1145 1105T796 1249Q569 1249 445
1108T321 711Q321 542 377 419T540 228T794 161Q1023 161 1146 304T1269 711ZM1075 1755L755 1530H622V1554L851 1789H1075V1755Z" />
<glyph unicode="&#xd4;" horiz-adv-x="1593" d="M1499 711Q1499 487 1413 323T1168 70T794 -20Q577 -20 420 68T178 320T93 711Q93 937 176 1097T417 1344T796 1430Q1015 1430 1172 1345T1414 1099T1499 711ZM1269 711Q1269 962 1145 1105T796 1249Q569 1249 445
1108T321 711Q321 542 377 419T540 228T794 161Q1023 161 1146 304T1269 711ZM455 1530V1553L697 1805H909L1142 1553V1530H1019L805 1673H803L578 1530H455Z" />
<glyph unicode="&#xd5;" horiz-adv-x="1593" d="M1499 711Q1499 487 1413 323T1168 70T794 -20Q577 -20 420 68T178 320T93 711Q93 937 176 1097T417 1344T796 1430Q1015 1430 1172 1345T1414 1099T1499 711ZM1269 711Q1269 962 1145 1105T796 1249Q569 1249 445
1108T321 711Q321 542 377 419T540 228T794 161Q1023 161 1146 304T1269 711ZM945 1530Q906 1530 865 1548T784 1588Q743 1611 705 1630T634 1650Q584 1650 559 1622T523 1530H416Q431 1689 486 1747T627 1806Q669 1806 712 1787T797 1743Q836 1722 871 1704T937
1686Q984 1686 1011 1714T1048 1806H1154Q1141 1655 1089 1593T945 1530Z" />
<glyph unicode="&#xd6;" horiz-adv-x="1593" d="M1499 711Q1499 487 1413 323T1168 70T794 -20Q577 -20 420 68T178 320T93 711Q93 937 176 1097T417 1344T796 1430Q1015 1430 1172 1345T1414 1099T1499 711ZM1269 711Q1269 962 1145 1105T796 1249Q569 1249 445
1108T321 711Q321 542 377 419T540 228T794 161Q1023 161 1146 304T1269 711ZM1088 1726V1530H914V1726H1088ZM675 1726V1530H500V1726H675Z" />
<glyph unicode="&#xd7;" horiz-adv-x="1196" d="M600 562L244 206L123 329L478 684L126 1036L248 1157L599 805L949 1156L1072 1033L721 683L1073 332L953 209L600 562Z" />
<glyph unicode="&#xd8;" horiz-adv-x="1593" d="M1499 711Q1499 491 1413 327T1169 71T794 -20Q559 -20 398 80L288 -59L96 -60L281 174Q93 367 93 711Q93 937 176 1097T417 1344T796 1430Q1027 1430 1190 1332L1298 1468H1491L1309 1239Q1404 1145 1451 1012T1499
711ZM321 711Q321 490 416 348L1067 1173Q954 1249 796 1249Q569 1249 445 1108T321 711ZM1269 711Q1269 927 1175 1065L522 239Q633 160 794 160Q1023 160 1146 304T1269 711Z" />
<glyph unicode="&#xd9;" horiz-adv-x="1479" d="M728 -20Q548 -20 418 44T217 228T146 517V1409H372V536Q372 351 464 256T730 160Q910 160 1008 259T1107 548V1409H1332V534Q1332 361 1259 237T1051 47T728 -20ZM926 1554V1530H794L474 1755V1789H698L926 1554Z" />
<glyph unicode="&#xda;" horiz-adv-x="1479" d="M728 -20Q548 -20 418 44T217 228T146 517V1409H372V536Q372 351 464 256T730 160Q910 160 1008 259T1107 548V1409H1332V534Q1332 361 1259 237T1051 47T728 -20ZM1027 1755L707 1530H574V1554L803 1789H1027V1755Z" />
<glyph unicode="&#xdb;" horiz-adv-x="1479" d="M728 -20Q548 -20 418 44T217 228T146 517V1409H372V536Q372 351 464 256T730 160Q910 160 1008 259T1107 548V1409H1332V534Q1332 361 1259 237T1051 47T728 -20ZM395 1530V1553L637 1805H849L1082 1553V1530H959L745
1673H743L518 1530H395Z" />
<glyph unicode="&#xdc;" horiz-adv-x="1479" d="M728 -20Q548 -20 418 44T217 228T146 517V1409H372V536Q372 351 464 256T730 160Q910 160 1008 259T1107 548V1409H1332V534Q1332 361 1259 237T1051 47T728 -20ZM1032 1726V1530H858V1726H1032ZM619 1726V1530H444V1726H619Z"
/>
<glyph unicode="&#xdd;" horiz-adv-x="1366" d="M795 582V0H570V582L42 1409H285L683 763L1082 1409H1325L795 582ZM985 1755L665 1530H532V1554L761 1789H985V1755Z" />
<glyph unicode="&#xde;" horiz-adv-x="1366" d="M1271 736Q1271 607 1211 507T1040 349T776 292H383V0H158V1409H383V1163H764Q1008 1163 1139 1052T1271 736ZM1044 732Q1044 858 968 928T738 998H383V456H746Q888 456 966 529T1044 732Z" />
<glyph unicode="&#xdf;" horiz-adv-x="1251" d="M1176 301Q1176 147 1080 64T808 -20Q644 -20 532 27L531 205Q582 178 658 159T795 139Q884 139 929 179T974 291Q974 351 933 400T796 508Q706 562 662 628T618 777Q618 835 646 884T729 980Q788 1030 814 1071T840
1161Q840 1234 780 1278T618 1322Q485 1322 421 1248T356 1018V0H142V1020Q142 1250 263 1367T619 1484Q814 1484 928 1401T1043 1174Q1043 1100 1013 1041T931 932Q887 892 863 868T828 825T818 788Q818 759 837 735T896 681T997 609Q1176 485 1176 301Z" />
<glyph unicode="&#xe0;" horiz-adv-x="1139" d="M660 -20Q499 -20 415 66T331 303Q331 471 441 560T785 655L1024 659V716Q1024 840 975 895T817 950Q710 950 662 911T602 784L379 800Q428 1102 824 1102Q1028 1102 1133 1006T1239 730V288Q1239 204 1260 166T1336
127Q1366 127 1396 134V9Q1356 -1 1321 -6T1244 -11Q1142 -11 1095 41T1040 202H1034Q968 84 878 32T660 -20ZM1024 523L845 520Q728 517 671 495Q613 473 583 428T552 309Q552 224 595 180T717 135Q806 135 875 177Q944 219 984 292T1024 445V523ZM728 1219V1195H609L276
1472V1506H500L728 1219Z" />
<glyph unicode="&#xe1;" horiz-adv-x="1139" d="M660 -20Q499 -20 415 66T331 303Q331 471 441 560T785 655L1024 659V716Q1024 840 975 895T817 950Q710 950 662 911T602 784L379 800Q428 1102 824 1102Q1028 1102 1133 1006T1239 730V288Q1239 204 1260 166T1336
127Q1366 127 1396 134V9Q1356 -1 1321 -6T1244 -11Q1142 -11 1095 41T1040 202H1034Q968 84 878 32T660 -20ZM1024 523L845 520Q728 517 671 495Q613 473 583 428T552 309Q552 224 595 180T717 135Q806 135 875 177Q944 219 984 292T1024 445V523ZM853 1472L519
1195H400V1219L629 1506H853V1472Z" />
<glyph unicode="&#xe2;" horiz-adv-x="1139" d="M660 -20Q499 -20 415 66T331 303Q331 471 441 560T785 655L1024 659V716Q1024 840 975 895T817 950Q710 950 662 911T602 784L379 800Q428 1102 824 1102Q1028 1102 1133 1006T1239 730V288Q1239 204 1260 166T1336
127Q1366 127 1396 134V9Q1356 -1 1321 -6T1244 -11Q1142 -11 1095 41T1040 202H1034Q968 84 878 32T660 -20ZM1024 523L845 520Q728 517 671 495Q613 473 583 428T552 309Q552 224 595 180T717 135Q806 135 875 177Q944 219 984 292T1024 445V523ZM213 1195V1218L455
1504H667L900 1218V1195H777L563 1372H560L335 1195H213Z" />
<glyph unicode="&#xe3;" horiz-adv-x="1139" d="M660 -20Q499 -20 415 66T331 303Q331 471 441 560T785 655L1024 659V716Q1024 840 975 895T817 950Q710 950 662 911T602 784L379 800Q428 1102 824 1102Q1028 1102 1133 1006T1239 730V288Q1239 204 1260 166T1336
127Q1366 127 1396 134V9Q1356 -1 1321 -6T1244 -11Q1142 -11 1095 41T1040 202H1034Q968 84 878 32T660 -20ZM1024 523L845 520Q728 517 671 495Q613 473 583 428T552 309Q552 224 595 180T717 135Q806 135 875 177Q944 219 984 292T1024 445V523ZM731 1195Q691
1195 651 1213T570 1253Q529 1277 491 1296T420 1315Q369 1315 344 1287T308 1195H202Q217 1354 271 1412T412 1471Q457 1471 501 1451T588 1405Q626 1384 660 1368T723 1351Q769 1351 796 1379T834 1471H940Q926 1320 874 1258T731 1195Z" />
<glyph unicode="&#xe4;" horiz-adv-x="1139" d="M660 -20Q499 -20 415 66T331 303Q331 471 441 560T785 655L1024 659V716Q1024 840 975 895T817 950Q710 950 662 911T602 784L379 800Q428 1102 824 1102Q1028 1102 1133 1006T1239 730V288Q1239 204 1260 166T1336
127Q1366 127 1396 134V9Q1356 -1 1321 -6T1244 -11Q1142 -11 1095 41T1040 202H1034Q968 84 878 32T660 -20ZM1024 523L845 520Q728 517 671 495Q613 473 583 428T552 309Q552 224 595 180T717 135Q806 135 875 177Q944 219 984 292T1024 445V523ZM852 1408V1212H671V1408H852ZM445
1408V1212H263V1408H445Z" />
<glyph unicode="&#xe5;" horiz-adv-x="1139" d="M660 -20Q499 -20 415 66T331 303Q331 471 441 560T785 655L1024 659V716Q1024 840 975 895T817 950Q710 950 662 911T602 784L379 800Q428 1102 824 1102Q1028 1102 1133 1006T1239 730V288Q1239 204 1260 166T1336
127Q1366 127 1396 134V9Q1356 -1 1321 -6T1244 -11Q1142 -11 1095 41T1040 202H1034Q968 84 878 32T660 -20ZM1024 523L845 520Q728 517 671 495Q613 473 583 428T552 309Q552 224 595 180T717 135Q806 135 875 177Q944 219 984 292T1024 445V523ZM804 1417Q804
1350 771 1294T683 1205T558 1171Q490 1171 434 1204T345 1294T312 1417Q312 1486 345 1541T435 1630T558 1663Q625 1663 681 1630T770 1541T804 1417ZM690 1417Q690 1472 652 1510T558 1548Q503 1548 465 1510T426 1417Q426 1362 464 1323T558 1283Q614 1283 652
1322T690 1417Z" />
<glyph unicode="&#xe6;" horiz-adv-x="1821" d="M1707 249Q1604 -20 1258 -20Q940 -20 831 228Q756 96 652 38T403 -20Q238 -20 152 66T66 303Q66 646 533 655L773 659V716Q773 842 723 896T562 950Q450 950 400 911T337 784L114 800Q138 950 251 1026T567 1102Q806
1102 911 974Q1033 1102 1254 1102Q1491 1102 1611 955T1732 516V494H993Q993 316 1063 225T1262 133Q1365 133 1428 175T1514 286L1707 249ZM1517 648Q1505 806 1439 880T1251 954Q1133 954 1067 874T995 648H1517ZM287 309Q287 225 333 180T461 135Q553 135 623
178Q694 221 733 294T773 449V523L592 520Q470 516 408 493Q347 469 317 424T287 309Z" />
<glyph unicode="&#xe7;" horiz-adv-x="1062" d="M567 -20Q333 -20 209 124T85 540Q85 811 210 956T567 1102Q741 1102 855 1013T1000 766L782 752Q769 840 715 892T561 944Q430 944 369 851T308 546Q308 340 372 240T564 139Q655 139 716 190T791 347L1006 335Q992
227 933 148T781 24T567 -20ZM765 -247Q765 -339 693 -385T481 -431Q425 -431 387 -426V-322Q431 -328 473 -328Q616 -328 616 -251Q616 -214 585 -196T487 -177Q466 -177 453 -177T432 -179L496 0H615L578 -94Q672 -98 718 -138T765 -247Z" />
<glyph unicode="&#xe8;" horiz-adv-x="1139" d="M309 498Q309 321 380 227T585 133Q688 133 751 175T837 286L1030 249Q927 -20 581 -20Q339 -20 212 123T85 547Q85 815 213 958T577 1102Q814 1102 934 955T1055 516V498H309ZM840 648Q828 806 762 880T574 954Q454
954 385 873T311 648H840ZM766 1219V1195H647L314 1472V1506H538L766 1219Z" />
<glyph unicode="&#xe9;" horiz-adv-x="1139" d="M309 498Q309 321 380 227T585 133Q688 133 751 175T837 286L1030 249Q927 -20 581 -20Q339 -20 212 123T85 547Q85 815 213 958T577 1102Q814 1102 934 955T1055 516V498H309ZM840 648Q828 806 762 880T574 954Q454
954 385 873T311 648H840ZM886 1472L552 1195H433V1219L662 1506H886V1472Z" />
<glyph unicode="&#xea;" horiz-adv-x="1139" d="M309 498Q309 321 380 227T585 133Q688 133 751 175T837 286L1030 249Q927 -20 581 -20Q339 -20 212 123T85 547Q85 815 213 958T577 1102Q814 1102 934 955T1055 516V498H309ZM840 648Q828 806 762 880T574 954Q454
954 385 873T311 648H840ZM239 1195V1218L481 1504H693L926 1218V1195H803L589 1372H586L361 1195H239Z" />
<glyph unicode="&#xeb;" horiz-adv-x="1139" d="M309 498Q309 321 380 227T585 133Q688 133 751 175T837 286L1030 249Q927 -20 581 -20Q339 -20 212 123T85 547Q85 815 213 958T577 1102Q814 1102 934 955T1055 516V498H309ZM840 648Q828 806 762 880T574 954Q454
954 385 873T311 648H840ZM871 1408V1212H690V1408H871ZM464 1408V1212H282V1408H464Z" />
<glyph unicode="&#xec;" horiz-adv-x="569" d="M391 1082V0H178V1082H391ZM694 1219V1195H575L242 1472V1506H466L694 1219Z" />
<glyph unicode="&#xed;" horiz-adv-x="569" d="M391 1082V0H178V1082H391ZM581 1472L247 1195H128V1219L357 1506H581V1472Z" />
<glyph unicode="&#xee;" horiz-adv-x="569" d="M391 1082V0H178V1082H391ZM199 1195V1218L441 1504H653L886 1218V1195H763L549 1372H546L321 1195H199Z" />
<glyph unicode="&#xef;" horiz-adv-x="569" d="M391 1082V0H178V1082H391ZM837 1408V1212H656V1408H837ZM430 1408V1212H248V1408H430Z" />
<glyph unicode="&#xf0;" horiz-adv-x="1176" d="M585 -19Q347 -19 216 111T84 480Q84 720 215 848T591 977Q716 977 799 927Q705 1117 593 1226L295 1097V1234L496 1320Q445 1361 384 1402T249 1484H486Q572 1443 652 1385L946 1510L945 1373L764 1295Q931 1138
1015 943T1099 524Q1099 260 968 121T585 -19ZM875 480Q875 661 807 742T595 824Q448 824 378 741T308 480Q308 304 377 219T582 133Q731 133 803 215T875 480Z" />
<glyph unicode="&#xf1;" horiz-adv-x="1176" d="M359 611V0H145V847Q145 940 144 996T139 1082H341Q343 1065 345 1031T348 958T351 887H354Q415 1003 498 1052T701 1102Q877 1102 962 1006T1048 710V0H834V660Q834 811 785 875T621 939Q501 939 430 851T359 611ZM761
1195Q721 1195 681 1213T600 1253Q559 1277 521 1296T450 1315Q399 1315 374 1287T338 1195H232Q247 1354 301 1412T442 1471Q487 1471 531 1451T618 1405Q656 1384 690 1368T753 1351Q799 1351 826 1379T864 1471H970Q956 1320 904 1258T761 1195Z" />
<glyph unicode="&#xf2;" horiz-adv-x="1176" d="M1092 542Q1092 265 960 123T584 -20Q341 -20 213 126T84 542Q84 816 213 959T590 1102Q843 1102 967 963T1092 542ZM868 542Q868 756 803 852T593 949Q445 949 377 850T308 542Q308 339 375 236T581 133Q733 133
800 233T868 542ZM781 1219V1195H662L329 1472V1506H553L781 1219Z" />
<glyph unicode="&#xf3;" horiz-adv-x="1176" d="M1092 542Q1092 265 960 123T584 -20Q341 -20 213 126T84 542Q84 816 213 959T590 1102Q843 1102 967 963T1092 542ZM868 542Q868 756 803 852T593 949Q445 949 377 850T308 542Q308 339 375 236T581 133Q733 133
800 233T868 542ZM895 1472L561 1195H442V1219L671 1506H895V1472Z" />
<glyph unicode="&#xf4;" horiz-adv-x="1176" d="M1092 542Q1092 265 960 123T584 -20Q341 -20 213 126T84 542Q84 816 213 959T590 1102Q843 1102 967 963T1092 542ZM868 542Q868 756 803 852T593 949Q445 949 377 850T308 542Q308 339 375 236T581 133Q733 133
800 233T868 542ZM246 1195V1218L488 1504H700L933 1218V1195H810L596 1372H593L368 1195H246Z" />
<glyph unicode="&#xf5;" horiz-adv-x="1176" d="M1092 542Q1092 265 960 123T584 -20Q341 -20 213 126T84 542Q84 816 213 959T590 1102Q843 1102 967 963T1092 542ZM868 542Q868 756 803 852T593 949Q445 949 377 850T308 542Q308 339 375 236T581 133Q733 133
800 233T868 542ZM756 1195Q716 1195 676 1213T595 1253Q554 1277 516 1296T445 1315Q394 1315 369 1287T333 1195H227Q242 1354 296 1412T437 1471Q482 1471 526 1451T613 1405Q651 1384 685 1368T748 1351Q794 1351 821 1379T859 1471H965Q951 1320 899 1258T756
1195Z" />
<glyph unicode="&#xf6;" horiz-adv-x="1176" d="M1092 542Q1092 265 960 123T584 -20Q341 -20 213 126T84 542Q84 816 213 959T590 1102Q843 1102 967 963T1092 542ZM868 542Q868 756 803 852T593 949Q445 949 377 850T308 542Q308 339 375 236T581 133Q733 133
800 233T868 542ZM885 1408V1212H704V1408H885ZM478 1408V1212H296V1408H478Z" />
<glyph unicode="&#xf7;" horiz-adv-x="1124" d="M657 1159V959H466V1159H657ZM1065 767V595H60V767H1065ZM657 405V205H466V405H657Z" />
<glyph unicode="&#xf8;" horiz-adv-x="1251" d="M1132 542Q1132 265 1000 123T623 -20Q430 -20 306 75L202 -44H30L218 171Q123 312 123 542Q123 816 252 959T629 1102Q829 1102 950 1014L1044 1122H1217L1040 919Q1132 783 1132 542ZM348 542Q348 426 369 344L826
872Q762 949 632 949Q484 949 416 850T348 542ZM908 542Q908 659 887 743L429 215Q495 133 621 133Q772 133 840 233T908 542Z" />
<glyph unicode="&#xf9;" horiz-adv-x="1176" d="M829 195Q769 79 686 30T482 -20Q306 -20 221 74T135 372V1082H349V422Q349 267 399 205T562 143Q683 143 753 231T824 471V1082H1038V235Q1038 149 1039 90T1045 0H842Q839 27 837 73T833 195H829ZM775 1219V1195H656L323
1472V1506H547L775 1219Z" />
<glyph unicode="&#xfa;" horiz-adv-x="1176" d="M829 195Q769 79 686 30T482 -20Q306 -20 221 74T135 372V1082H349V422Q349 267 399 205T562 143Q683 143 753 231T824 471V1082H1038V235Q1038 149 1039 90T1045 0H842Q839 27 837 73T833 195H829ZM884 1472L550
1195H431V1219L660 1506H884V1472Z" />
<glyph unicode="&#xfb;" horiz-adv-x="1176" d="M829 195Q769 79 686 30T482 -20Q306 -20 221 74T135 372V1082H349V422Q349 267 399 205T562 143Q683 143 753 231T824 471V1082H1038V235Q1038 149 1039 90T1045 0H842Q839 27 837 73T833 195H829ZM244 1195V1218L486
1504H698L931 1218V1195H808L594 1372H591L366 1195H244Z" />
<glyph unicode="&#xfc;" horiz-adv-x="1176" d="M829 195Q769 79 686 30T482 -20Q306 -20 221 74T135 372V1082H349V422Q349 267 399 205T562 143Q683 143 753 231T824 471V1082H1038V235Q1038 149 1039 90T1045 0H842Q839 27 837 73T833 195H829ZM876 1408V1212H695V1408H876ZM469
1408V1212H287V1408H469Z" />
<glyph unicode="&#xfd;" horiz-adv-x="1062" d="M222 -425Q139 -425 80 -413V-257Q124 -263 168 -263Q257 -263 321 -204T437 7L9 1082H236L444 514Q468 453 495 372T543 211Q568 289 592 361T640 508L831 1082H1056L636 -19Q605 -99 575 -160T515 -262Q456 -347
385 -386T222 -425ZM827 1472L493 1195H374V1219L603 1506H827V1472Z" />
<glyph unicode="&#xfe;" horiz-adv-x="1176" d="M353 -5V-425H140V1484H353V1048Q353 1013 352 973T349 890H355Q402 990 484 1037T693 1085Q890 1085 990 949T1091 537Q1091 263 989 122T687 -20Q442 -20 354 169H349Q353 155 353 -5ZM867 535Q867 743 808 835T623
927Q485 927 419 829T352 523Q352 326 417 230T621 133Q748 133 807 227T867 535Z" />
<glyph unicode="&#xff;" horiz-adv-x="1062" d="M222 -425Q139 -425 80 -413V-257Q124 -263 168 -263Q257 -263 321 -204T437 7L9 1082H236L444 514Q468 453 495 372T543 211Q568 289 592 361T640 508L831 1082H1056L636 -19Q605 -99 575 -160T515 -262Q456 -347
385 -386T222 -425ZM829 1408V1212H648V1408H829ZM422 1408V1212H240V1408H422Z" />
<glyph unicode="&#x2013;" horiz-adv-x="1139" d="M1117 609V450H21V609H1117Z" />
<glyph unicode="&#x2014;" horiz-adv-x="2048" d="M2048 609V450H0V609H2048Z" />
<glyph unicode="&#x2018;" horiz-adv-x="493" d="M357 1129V912H131V1074Q131 1179 152 1259T220 1409H362Q310 1338 283 1266T255 1129H357Z" />
<glyph unicode="&#x2019;" horiz-adv-x="493" d="M362 1247Q362 1137 341 1060T274 912H131Q237 1059 237 1191H136V1409H362V1247Z" />
<glyph unicode="&#x201a;" horiz-adv-x="493" d="M362 56Q362 -55 341 -133T274 -280H131Q183 -210 210 -138T238 0H136V217H362V56Z" />
<glyph unicode="&#x201c;" horiz-adv-x="796" d="M690 1129V912H464V1074Q464 1179 485 1259T553 1409H695Q643 1338 616 1267T589 1129H690ZM326 1129V912H100V1074Q100 1179 121 1259T190 1409H331Q279 1338 252 1266T224 1129H326Z" />
<glyph unicode="&#x201d;" horiz-adv-x="796" d="M695 1248Q695 1146 676 1067T606 912H464Q571 1058 571 1192H470V1409H695V1248ZM331 1248Q331 1137 310 1060T243 912H100Q207 1059 207 1192H106V1409H331V1248Z" />
<glyph unicode="&#x201e;" horiz-adv-x="796" d="M695 56Q695 -47 675 -127T606 -280H464Q515 -211 543 -139T571 0H470V217H695V56ZM331 56Q331 -56 310 -133T243 -280H100Q152 -209 179 -138T207 0H106V217H331V56Z" />
<glyph unicode="&#x2022;" horiz-adv-x="717" d="M641 680Q641 603 603 538T500 434T355 394Q279 394 215 433T114 537T76 680Q76 759 114 822T215 922T355 960Q435 960 499 923T602 822T641 680Z" />
<glyph unicode="&#x2039;" horiz-adv-x="682" d="M591 172V141H399L89 505V570L399 940H589V907L281 537L591 172Z" />
<glyph unicode="&#x203a;" horiz-adv-x="682" d="M90 141V172L401 537L92 907V940H282L592 570V505L282 141H90Z" />
</font>
</defs>
</svg>
