<?xml version="1.0" standalone="no"?>
<!DOCTYPE svg PUBLIC "-//W3C//DTD SVG 1.1//EN" "http://www.w3.org/Graphics/SVG/1.1/DTD/svg11.dtd">
<svg xmlns="http://www.w3.org/2000/svg">
<defs >
<font id="Arimo" horiz-adv-x="1188" ><font-face
    font-family="Arimo SemiBold"
    units-per-em="2048"
    panose-1="2 11 6 4 2 2 2 9 2 4"
    ascent="1854"
    descent="-434"
    alphabetic="0" />
<glyph unicode=" " horiz-adv-x="569" />
<glyph unicode="!" horiz-adv-x="644" d="M614 1409L392 416H189L353 1409H614ZM383 247L335 0H78L126 247H383Z" />
<glyph unicode="&quot;" horiz-adv-x="890" d="M929 1409L808 921H615L684 1409H929ZM521 1409L401 921H208L277 1409H521Z" />
<glyph unicode="#" horiz-adv-x="1139" d="M366 390L285 0H146L227 390H56V525H257L329 870H107V1004H357L443 1397H582L498 1004H823L909 1397H1049L964 1004H1144V870H935L863 525H1093V390H834L750 0H610L692 390H366ZM396 525H723L796 870H471L396 525Z" />
<glyph unicode="$" horiz-adv-x="1139" d="M1077 458Q1077 254 938 143T524 21L492 -148H379L411 23Q227 28 117 120T-11 369L218 410Q231 313 287 264T448 211L529 634Q379 672 291 737Q225 786 191 850T156 998Q156 1117 220 1206Q283 1293 404 1342T678 1391L703
1519L814 1516L787 1384Q947 1377 1045 1300T1161 1088L935 1035Q901 1196 753 1205L679 823Q884 772 980 683T1077 458ZM396 1010Q396 955 432 919T571 850L643 1209Q529 1208 463 1154T396 1010ZM836 413Q836 490 790 534T638 606L559 210Q689 213 762 266T836
413Z" />
<glyph unicode="%" horiz-adv-x="1821" d="M546 1421Q687 1421 762 1342T838 1113Q838 1030 815 937Q802 869 779 810T724 703Q605 524 407 524Q271 524 197 607T123 841Q123 949 155 1054Q243 1421 546 1421ZM466 0H279L1399 1409H1587L466 0ZM545 1284Q496 1284
462 1264T401 1202Q374 1160 354 1091T322 950T311 827Q311 669 411 669Q486 669 534 725Q565 760 587 817T624 947Q649 1053 649 1131Q649 1284 545 1284ZM1461 883Q1602 883 1678 804T1754 575Q1754 493 1731 397Q1717 330 1695 271T1640 165Q1521 -14 1322 -14Q1186
-14 1113 69T1039 303Q1039 411 1071 516Q1158 883 1461 883ZM1460 746Q1412 746 1378 726T1317 664Q1290 622 1270 553T1239 412T1227 289Q1227 131 1326 131Q1403 131 1452 190Q1483 225 1505 283T1540 414Q1565 517 1565 593Q1565 746 1460 746Z" />
<glyph unicode="&amp;" horiz-adv-x="1441" d="M1302 679Q1249 558 1175 443T1020 243Q1058 209 1105 192T1205 174Q1268 174 1316 190L1286 10Q1223 -12 1151 -12Q986 -12 858 107Q823 80 790 60T726 28Q672 5 604 -7T456 -20Q259 -20 152 78T44 353Q44 457 89
540T228 689T471 809Q456 861 447 922T438 1037Q438 1209 550 1313T856 1417Q1008 1417 1096 1348T1184 1158Q1184 1059 1127 984T942 841Q903 818 844 790T706 729Q747 613 790 531T893 368Q958 438 1016 530T1133 753L1302 679ZM642 1041Q642 962 662 885Q735
913 790 936T879 980Q930 1012 956 1051T983 1144Q983 1200 946 1231T845 1263Q751 1263 697 1204T642 1041ZM479 150Q549 150 615 173T734 237Q669 321 613 425T517 646Q379 586 325 518T270 358Q270 264 327 207T479 150Z" />
<glyph unicode="&apos;" horiz-adv-x="455" d="M512 1409L392 921H199L269 1409H512Z" />
<glyph unicode="(" horiz-adv-x="682" d="M868 1484Q326 981 326 274Q326 -122 493 -425H251Q81 -116 81 290Q81 656 219 960T622 1484H868Z" />
<glyph unicode=")" horiz-adv-x="682" d="M-186 -425Q356 87 356 805Q356 983 313 1161T188 1484H423Q601 1172 601 789Q601 415 462 106T59 -425H-186Z" />
<glyph unicode="*" horiz-adv-x="797" d="M794 766L631 661L484 915L333 662L169 768L359 991L99 1056L159 1232L407 1127L391 1409H580L564 1128L808 1232L869 1056L608 991L794 766Z" />
<glyph unicode="+" horiz-adv-x="1196" d="M734 582V167H534V582H127V780H534V1195H734V780H1143V582H734Z" />
<glyph unicode="," horiz-adv-x="569" d="M331 61Q310 -51 270 -137T163 -299H-1Q71 -224 117 -147T177 0H62L115 276H373L331 61Z" />
<glyph unicode="-" horiz-adv-x="682" d="M627 643L586 427H72L114 643H627Z" />
<glyph unicode="." horiz-adv-x="569" d="M369 276L315 0H57L111 276H369Z" />
<glyph unicode="/" horiz-adv-x="569" d="M748 1484L126 -34H-89L536 1484H748Z" />
<glyph unicode="0" horiz-adv-x="1139" d="M727 1430Q919 1430 1019 1312T1120 964Q1120 804 1069 600Q995 291 847 136T477 -20Q284 -20 185 101T86 458Q86 560 106 685T164 932T255 1147Q334 1286 450 1358T727 1430ZM495 176Q624 176 703 284Q734 326 761 394T810
543T847 705T871 858T880 976Q880 1105 835 1170T703 1235Q620 1235 564 1195T467 1067Q439 1015 414 931T369 751T338 569T327 423Q327 300 369 238T495 176Z" />
<glyph unicode="1" horiz-adv-x="1139" d="M1008 205L969 0H40L78 205H431L619 1176L245 959L288 1180L678 1409H913L678 205H1008Z" />
<glyph unicode="2" horiz-adv-x="1139" d="M981 205L942 0H-25L7 172Q42 232 83 282T171 376Q216 421 263 461T374 548T535 661Q608 711 662 752T750 828Q802 881 830 938T859 1063Q859 1143 812 1187T674 1231Q579 1231 516 1182T423 1029L189 1081Q242 1257
369 1343T691 1430Q825 1430 920 1389T1065 1271T1115 1081Q1115 982 1070 892Q1040 832 992 776T861 656T649 505Q512 414 430 344T303 205H981Z" />
<glyph unicode="3" horiz-adv-x="1139" d="M545 818Q706 818 785 881T864 1061Q864 1140 818 1185T685 1231Q584 1231 516 1180T419 1031L182 1070Q235 1251 365 1340T696 1430Q894 1430 1006 1339T1118 1086Q1118 931 1021 836T754 722L753 718Q887 696 958 618T1030
414Q1030 290 966 190Q903 90 786 35T516 -20Q382 -20 281 18Q59 102 27 341L269 383Q287 284 351 232T530 180Q646 180 711 242T777 412Q777 511 716 562T537 614H425L464 818H545Z" />
<glyph unicode="4" horiz-adv-x="1139" d="M865 297L808 0H569L626 297H-18L18 482L769 1409H1082L902 484H1090L1053 297H865ZM809 1190Q784 1152 755 1113T692 1032L248 484H663L766 1016Q775 1058 785 1101T809 1190Z" />
<glyph unicode="5" horiz-adv-x="1139" d="M985 221Q916 105 789 43T492 -20Q298 -20 180 66T29 322L272 367Q294 267 352 224T512 180Q650 180 728 262T806 486Q806 597 750 659T595 722Q459 722 366 628H125L325 1409H1157L1118 1204H510L414 832Q459 872 525
897T676 922Q849 922 954 812T1060 514Q1060 345 985 221Z" />
<glyph unicode="6" horiz-adv-x="1139" d="M533 -20Q397 -20 301 40T153 213T102 479Q102 740 186 963Q269 1187 417 1308T750 1430Q920 1430 1021 1351T1146 1121L914 1082Q896 1157 853 1195T738 1233Q606 1233 511 1108T373 739Q428 817 513 862T704 908Q816
908 897 862T1023 732T1068 533Q1068 381 999 254Q930 125 808 53T533 -20ZM342 426Q342 313 397 244T551 175Q630 175 689 217T782 334T815 507Q815 610 764 667T619 724Q543 724 480 687Q415 650 379 583T342 426Z" />
<glyph unicode="7" horiz-adv-x="1139" d="M460 0H198Q228 155 284 290T417 549Q463 626 513 700T625 852T760 1016T924 1204H166L206 1409H1213L1175 1212Q1110 1135 1058 1072T964 958Q923 909 887 862T816 768Q776 714 741 661T675 556Q591 418 541 284T460 0Z" />
<glyph unicode="8" horiz-adv-x="1139" d="M706 1429Q902 1429 1017 1338T1133 1091Q1133 951 1047 856T816 740L815 736Q925 703 984 623T1044 432Q1044 224 898 102T495 -20Q276 -20 156 80T36 360Q36 508 129 608T394 743V747Q303 787 255 866T206 1052Q206
1229 340 1329T706 1429ZM651 830Q759 830 820 893T881 1072Q881 1160 831 1206T680 1253Q573 1253 512 1194T451 1024Q451 932 503 881T651 830ZM563 651Q433 651 362 576T291 370Q291 269 351 214T520 158Q641 158 715 234T790 441Q790 542 729 596T563 651Z"
/>
<glyph unicode="9" horiz-adv-x="1139" d="M844 663Q778 578 701 537T520 496Q411 496 328 544Q245 593 199 683T152 889Q152 1039 222 1165Q291 1290 414 1360T689 1430Q822 1430 918 1372T1066 1208T1119 957Q1119 847 1099 726T1041 491T950 287Q892 185 818
118Q743 48 656 14T470 -20Q298 -20 192 60T55 293L291 340Q308 259 357 218T486 176Q616 176 706 299T844 663ZM878 1012Q878 1110 822 1172T678 1235Q553 1235 478 1143T403 893Q403 796 456 739T601 681Q689 681 756 729Q878 816 878 1012Z" />
<glyph unicode=":" horiz-adv-x="644" d="M548 1050L497 793H240L291 1050H548ZM394 256L343 0H86L137 256H394Z" />
<glyph unicode=";" horiz-adv-x="644" d="M552 1050L502 793H245L295 1050H552ZM360 61Q339 -51 300 -136T192 -299H28Q100 -224 146 -147T206 0H91L141 256H398L360 61Z" />
<glyph unicode="&lt;" horiz-adv-x="1196" d="M1143 337V135L126 534V817L1143 1217V1014L301 675L1143 337Z" />
<glyph unicode="=" horiz-adv-x="1196" d="M1142 1045V847H125V1045H1142ZM1142 505V309H125V505H1142Z" />
<glyph unicode="&gt;" horiz-adv-x="1196" d="M1143 534L126 135V337L967 675L126 1014V1217L1143 817V534Z" />
<glyph unicode="?" horiz-adv-x="1214" d="M730 1430Q870 1430 971 1387T1128 1264T1184 1074Q1184 1012 1168 962T1123 872Q1095 830 1058 793T965 718T825 633Q778 605 747 582T696 539Q668 511 652 480T629 410H393Q407 488 439 546Q461 585 488 617T564 686T694
771Q758 810 801 840T869 899Q903 932 918 969T933 1054Q933 1129 877 1176T714 1224Q592 1224 515 1169T408 1008L176 1048Q236 1240 375 1335T730 1430ZM611 247L563 0H306L353 247H611Z" />
<glyph unicode="@" horiz-adv-x="2024" d="M1919 755Q1919 572 1858 422Q1796 271 1687 188T1449 104Q1354 104 1304 149T1253 277Q1253 296 1254 313T1258 345H1252Q1197 234 1099 169T894 104Q737 104 651 205T564 489Q564 651 629 795Q694 937 808 1019T1065
1101Q1267 1101 1341 924H1347L1386 1079H1542L1425 573Q1388 406 1388 329Q1388 280 1410 258T1467 236Q1548 236 1619 306Q1690 375 1731 493T1772 753Q1772 930 1696 1066Q1620 1201 1475 1274T1138 1348Q898 1348 714 1242Q530 1137 425 938T320 491Q320 297
399 150Q479 2 624 -75T964 -152Q1264 -152 1558 6L1618 -113Q1457 -205 1294 -247T960 -290Q722 -290 543 -195Q363 -100 264 79T165 491Q165 773 291 1002Q417 1231 639 1357T1136 1484Q1379 1484 1556 1394Q1733 1303 1826 1138T1919 755ZM1286 750Q1286 847
1224 908T1063 969Q967 969 891 906Q815 843 773 729T730 491Q730 375 778 309T926 242Q996 242 1062 285T1179 406Q1214 459 1237 522T1273 646T1286 750Z" />
<glyph unicode="A" horiz-adv-x="1441" d="M414 377L204 0H-62L746 1409H1050L1306 0H1046L985 377H414ZM861 1216Q852 1191 832 1150T783 1052L521 575H960L881 1061Q873 1119 868 1158T861 1216Z" />
<glyph unicode="B" horiz-adv-x="1441" d="M1328 434Q1328 222 1172 111T713 0H45L319 1409H878Q1115 1409 1241 1325T1367 1084Q1367 804 1038 740Q1175 717 1251 635T1328 434ZM466 831H773Q949 831 1027 883T1106 1048Q1106 1133 1046 1172T851 1212H540L466
831ZM343 197H684Q894 197 980 255T1067 439Q1067 534 995 585T771 636H429L343 197Z" />
<glyph unicode="C" horiz-adv-x="1479" d="M1171 455L1370 347Q1258 160 1094 70T707 -20Q520 -20 383 52Q246 124 175 258T104 569Q104 819 209 1018Q314 1216 502 1323T927 1430Q1152 1430 1300 1334T1499 1054L1256 988Q1225 1097 1136 1160T917 1223Q714 1223
579 1107Q477 1023 423 886T368 571Q368 389 461 288T725 186Q863 186 975 253T1171 455Z" />
<glyph unicode="D" horiz-adv-x="1479" d="M737 1409Q955 1409 1107 1338T1338 1132T1418 802Q1418 566 1318 386Q1218 206 1028 103T601 0H45L319 1409H737ZM344 203H592Q764 203 896 275Q1028 346 1099 480T1170 794Q1170 993 1058 1099T737 1206H539L344 203Z" />
<glyph unicode="E" horiz-adv-x="1366" d="M1214 204L1174 0H45L318 1409H1406L1367 1205H539L464 818H1231L1192 615H424L345 204H1214Z" />
<glyph unicode="F" horiz-adv-x="1251" d="M409 535L305 0H45L318 1409H1312L1273 1205H539L448 740H1159L1119 535H409Z" />
<glyph unicode="G" horiz-adv-x="1593" d="M741 -19Q439 -19 270 138T100 580Q100 830 205 1024Q310 1219 501 1324T943 1430Q1169 1430 1318 1334T1522 1059L1269 989Q1238 1102 1150 1162T928 1223Q758 1223 630 1145Q502 1066 434 921T365 587Q365 398 468
292T759 186Q877 186 987 216T1176 302L1223 538H855L892 730H1500L1397 187Q1246 75 1089 28T741 -19Z" />
<glyph unicode="H" horiz-adv-x="1479" d="M426 620L305 0H45L318 1409H579L467 836H1140L1252 1409H1503L1229 0H978L1099 620H426Z" />
<glyph unicode="I" horiz-adv-x="569" d="M585 1409L311 0H51L324 1409H585Z" />
<glyph unicode="J" horiz-adv-x="1101" d="M447 -20Q267 -20 158 75T15 367L249 417Q272 302 325 244T465 186Q523 186 564 210Q607 237 635 289T683 440L831 1203H546L586 1409H1129L936 423Q892 194 774 87T447 -20Z" />
<glyph unicode="K" horiz-adv-x="1441" d="M406 526L303 0H45L318 1409H578L446 753L599 885L1221 1409H1549L801 788L1297 0H1004L610 651L406 526Z" />
<glyph unicode="L" horiz-adv-x="1214" d="M1086 204L1046 0H45L318 1409H578L345 204H1086Z" />
<glyph unicode="M" horiz-adv-x="1706" d="M458 938L276 0H45L319 1409H661L782 558Q788 506 795 443T810 306Q830 350 850 392T889 473L1383 1409H1730L1456 0H1224L1399 899Q1414 973 1431 1051T1470 1213Q1419 1104 1387 1035T1334 926T1300 860L842 0H661L537
862Q525 964 515 1052T496 1213Q486 1122 477 1054T458 938Z" />
<glyph unicode="N" horiz-adv-x="1479" d="M453 909L276 0H45L319 1409H623L1052 243Q1066 344 1075 403T1094 509L1271 1409H1503L1229 0H918L492 1157Q481 1075 471 1013T453 909Z" />
<glyph unicode="O" horiz-adv-x="1593" d="M931 1430Q1124 1430 1262 1360T1476 1159T1551 851Q1550 598 1444 397Q1338 195 1150 88T721 -20Q526 -20 384 55Q248 127 176 260T104 573Q104 810 210 1012Q315 1214 502 1322T931 1430ZM919 1223Q745 1223 622 1144Q540
1091 484 1000T397 799T367 575Q367 383 462 285T733 186Q906 186 1029 265Q1110 318 1167 406T1255 605T1285 834Q1285 1020 1191 1121T919 1223Z" />
<glyph unicode="P" horiz-adv-x="1366" d="M851 1409Q1092 1409 1228 1300T1364 998Q1364 849 1295 740T1098 573T798 514H405L305 0H45L318 1409H851ZM444 715H766Q933 715 1016 780T1100 984Q1100 1092 1031 1148T830 1205H539L444 715Z" />
<glyph unicode="Q" horiz-adv-x="1593" d="M928 1430Q1120 1430 1259 1360T1473 1159T1548 851Q1547 701 1503 574Q1441 339 1281 188Q1111 29 862 -9Q880 -115 927 -163T1067 -211Q1138 -211 1208 -197L1172 -372Q1099 -396 1003 -396Q821 -396 723 -305T602
-12Q481 4 388 52T230 177Q100 329 100 573Q100 810 206 1012Q311 1214 499 1322T928 1430ZM916 1223Q741 1223 619 1144Q537 1091 481 1000T394 799T364 575Q364 383 459 285T730 186Q903 186 1025 265Q1107 318 1164 406T1251 605T1282 834Q1282 1020 1188 1121T916
1223Z" />
<glyph unicode="R" horiz-adv-x="1479" d="M412 551L305 0H45L319 1409H957Q1114 1409 1227 1358Q1334 1310 1391 1223T1449 1017Q1449 844 1341 731T1038 589L1310 0H1024L789 551H412ZM867 755Q1024 755 1104 819T1185 1001Q1185 1100 1118 1152T924 1205H539L452
755H867Z" />
<glyph unicode="S" horiz-adv-x="1366" d="M605 -20Q344 -20 205 72T36 356L288 401Q311 284 390 231T623 177Q812 177 903 232T994 399Q994 448 974 482T911 544Q879 564 820 586T672 631Q494 679 406 731Q319 783 273 857T227 1038Q227 1158 298 1246T497 1382T799
1430Q1031 1430 1171 1347T1345 1105L1095 1043Q1069 1138 992 1190T788 1243Q642 1243 564 1192T485 1048Q485 997 511 963T590 902Q616 889 668 872T799 833Q938 795 1012 761T1131 686Q1189 637 1220 572T1251 418Q1251 205 1089 93T605 -20Z" />
<glyph unicode="T" horiz-adv-x="1251" d="M883 1205L648 0H388L623 1205H158L197 1409H1387L1348 1205H883Z" />
<glyph unicode="U" horiz-adv-x="1479" d="M666 -20Q412 -20 271 98T130 431Q130 475 137 536T153 635L302 1409H562L406 588Q389 500 389 426Q389 312 466 249T682 186Q856 186 951 270T1082 541L1250 1409H1510L1340 530Q1285 252 1119 116T666 -20Z" />
<glyph unicode="V" horiz-adv-x="1366" d="M1514 1409L717 0H425L173 1409H441L583 475Q591 406 597 341T609 215Q636 271 660 319T704 409L1240 1409H1514Z" />
<glyph unicode="W" horiz-adv-x="1933" d="M966 883L577 0H266L159 1409H411L462 567Q466 486 468 399T472 221Q507 308 540 388T604 541L988 1409H1260L1306 545Q1310 469 1313 388T1319 221Q1341 274 1360 325T1403 431L1823 1409H2084L1429 0H1122L1080 840Q1077
936 1075 1013T1071 1150Q1039 1064 1013 997T966 883Z" />
<glyph unicode="X" horiz-adv-x="1366" d="M952 0L682 557L204 0H-76L577 739L238 1409H511L750 911L1176 1409H1455L855 732L1223 0H952Z" />
<glyph unicode="Y" horiz-adv-x="1366" d="M819 580L707 0H447L560 580L186 1409H446L720 781L1223 1409H1510L819 580Z" />
<glyph unicode="Z" horiz-adv-x="1251" d="M1122 206L1082 0H-45L-10 187L960 1203H263L303 1409H1313L1277 1226L306 206H1122Z" />
<glyph unicode="[" horiz-adv-x="644" d="M480 -255L447 -425H-49L321 1484H818L785 1314H523L218 -255H480Z" />
<glyph unicode="\" horiz-adv-x="569" d="M331 1485L512 -34H299L123 1485H331Z" />
<glyph unicode="]" horiz-adv-x="644" d="M695 1484L324 -425H-172L-139 -255H123L428 1314H165L198 1484H695Z" />
<glyph unicode="^" horiz-adv-x="1118" d="M593 1279L275 567H70L453 1409H736L1121 567H914L593 1279Z" />
<glyph unicode="_" horiz-adv-x="1139" d="M1044 -173V-250H-133V-173H1044Z" />
<glyph unicode="`" horiz-adv-x="682" d="M668 1216L663 1189H535L236 1466L243 1504H484L668 1216Z" />
<glyph unicode="a" horiz-adv-x="1139" d="M904 -10Q806 -10 756 31T706 143Q706 161 707 177T711 207H705Q621 78 537 29T332 -20Q192 -20 107 63T22 278Q22 463 151 557T568 657L772 660Q793 755 793 790Q793 863 754 898T641 934Q539 934 488 896T417 782L182
813Q220 958 336 1030T648 1102Q843 1102 940 1027T1038 807Q1038 760 1016 650L944 289Q935 240 935 211Q935 172 960 158T1014 144Q1046 144 1076 151L1062 10Q1023 -3 984 -6T904 -10ZM277 312Q277 240 319 198T432 156Q518 156 588 210Q637 245 671 297T720
411L744 514L569 513Q490 511 437 497T348 457Q314 433 296 397T277 312Z" />
<glyph unicode="b" horiz-adv-x="1214" d="M818 1102Q976 1102 1064 1008T1153 748Q1153 645 1138 548T1092 355Q1030 164 918 72T632 -20Q507 -20 430 32T321 178H318Q311 146 304 117T291 64Q285 46 280 29T271 0H33Q38 15 53 82T82 223L328 1484H575L491 1058Q485
1029 478 994T459 916H463Q524 1003 611 1052T818 1102ZM721 926Q572 926 488 811Q454 765 429 700T388 554Q371 457 371 393Q371 280 427 217T585 153Q693 153 755 220Q787 254 812 312T856 441T885 580T895 701Q895 812 856 869T721 926Z" />
<glyph unicode="c" horiz-adv-x="1101" d="M514 156Q603 156 663 210T759 371L991 322Q880 -20 502 -20Q291 -20 178 91T64 402Q64 599 141 770Q218 941 345 1021T662 1102Q844 1102 952 1010T1073 755L825 732Q819 827 773 876T645 926Q525 926 458 847T344 579Q334
524 328 479T322 401Q322 156 514 156Z" />
<glyph unicode="d" horiz-adv-x="1214" d="M395 -21Q240 -21 151 78T62 347Q62 542 125 728Q188 913 302 1007T583 1102Q709 1102 787 1052T895 904H900Q904 931 910 971T927 1066L1010 1484H1255L1015 228Q1003 168 996 111T983 0H738Q738 59 755 160H751Q679
66 597 23T395 -21ZM494 154Q663 154 749 302Q779 352 800 420T832 560T844 689Q844 810 792 869T638 929Q530 929 463 859Q419 813 388 731T339 556T322 384Q322 269 364 212T494 154Z" />
<glyph unicode="e" horiz-adv-x="1139" d="M324 485Q317 450 316 388Q316 273 369 212T528 150Q610 150 671 194T770 323L979 252Q905 103 794 42T508 -20Q299 -20 182 94T65 414Q65 618 137 776Q208 932 339 1017T641 1102Q848 1102 962 996T1076 697Q1076 596
1052 485H324ZM354 656H841L845 717Q845 830 791 884T642 939Q533 939 459 866T354 656Z" />
<glyph unicode="f" horiz-adv-x="644" d="M497 912L319 0H72L250 912H94L127 1082H283L306 1198Q328 1307 373 1367Q418 1427 491 1455T673 1484Q744 1484 817 1469L785 1302Q777 1304 765 1305T738 1308Q726 1310 714 1311T690 1312Q624 1312 593 1280T547 1171L530
1082H742L709 912H497Z" />
<glyph unicode="g" horiz-adv-x="1214" d="M420 -425Q231 -425 127 -358T-3 -152L240 -118Q269 -255 443 -255Q564 -255 630 -192T730 27Q740 74 748 117T762 201H760Q698 112 651 73Q603 34 544 13T407 -8Q252 -8 160 92T67 357Q67 431 77 508T107 658T156 795Q220
953 325 1027T587 1101Q706 1101 790 1045T901 894H903Q907 916 917 958T937 1039T951 1082H1184L1165 999L1135 855L972 17Q924 -219 793 -322T420 -425ZM326 388Q326 173 510 173Q605 173 683 244Q761 315 803 437T846 692Q846 803 790 866T634 929Q554 929 501
895T411 788Q387 738 368 665T337 518T326 388Z" />
<glyph unicode="h" horiz-adv-x="1214" d="M452 897Q529 1005 617 1053T822 1101Q973 1101 1049 1028T1125 817Q1125 790 1119 740T1104 653L977 0H731L851 612Q875 726 875 772Q875 913 714 913Q641 913 576 874T464 765T400 606L282 0H35L321 1484H568L490 1085Q481
1038 471 991T449 897H452Z" />
<glyph unicode="i" horiz-adv-x="531" d="M570 1484L531 1289H284L322 1484H570ZM492 1082L281 0H34L244 1082H492Z" />
<glyph unicode="j" horiz-adv-x="531" d="M570 1484L532 1289H285L323 1484H570ZM-69 -425Q-152 -425 -223 -408L-191 -237Q-173 -239 -157 -240T-125 -242Q-61 -242 -30 -205T19 -76L245 1082H492L256 -130Q226 -279 145 -352T-69 -425Z" />
<glyph unicode="k" horiz-adv-x="1101" d="M362 407L281 0H35L323 1484H570L399 612L574 778L897 1082H1186L694 646L989 0H726L511 499L362 407Z" />
<glyph unicode="l" horiz-adv-x="531" d="M570 1484L281 0H34L322 1484H570Z" />
<glyph unicode="m" horiz-adv-x="1783" d="M669 0L792 635Q812 738 812 783Q812 849 778 882T674 915Q576 915 502 832T400 604L282 0H35L201 851Q221 946 240 1082H478Q478 1075 473 1041T462 966T450 897H453Q528 1012 602 1056T779 1101Q1030 1101 1059 869Q1140
996 1222 1048T1411 1101Q1548 1101 1621 1028T1694 817Q1694 754 1673 653L1546 0H1300L1423 629Q1443 730 1443 783Q1443 849 1409 882T1305 915Q1206 915 1133 832T1033 607L914 0H669Z" />
<glyph unicode="n" horiz-adv-x="1214" d="M401 606L283 0H35L201 851Q209 893 218 951T239 1082H474Q474 1076 470 1039T459 960T449 897H452Q530 1005 618 1053T822 1101Q973 1101 1049 1028T1125 817Q1125 790 1119 740T1104 653L977 0H731L852 612Q875 726
875 772Q875 913 714 913Q641 913 576 874T464 765T401 606Z" />
<glyph unicode="o" horiz-adv-x="1214" d="M1148 683Q1148 571 1122 463T1043 268Q963 129 828 55T520 -20Q310 -20 187 97T64 419Q66 622 142 777Q219 933 358 1017T683 1101Q910 1101 1029 992T1148 683ZM890 669Q890 929 669 929Q548 929 476 866Q428 824 394
751T341 592T323 426Q323 290 379 221T545 152Q616 152 666 173T755 238Q814 300 849 414T890 669Z" />
<glyph unicode="p" horiz-adv-x="1214" d="M626 -20Q502 -20 424 32T314 178H311Q308 156 303 119T287 31Q272 -47 250 -161T199 -425H-47L198 842Q203 869 208 895T217 948Q222 982 227 1015T236 1082H475Q475 1070 472 1037T464 969T454 916H458Q530 1014 612
1058T812 1102Q971 1102 1059 1008T1148 748Q1148 546 1086 355Q1024 164 912 72T626 -20ZM715 926Q598 926 524 854T411 636Q397 598 387 555T371 470T365 393Q365 280 421 217T579 153Q689 153 752 221Q784 255 809 312T851 438T878 576T888 701Q888 813 847
869T715 926Z" />
<glyph unicode="q" horiz-adv-x="1214" d="M396 -21Q243 -21 153 76T62 343Q62 542 126 727Q189 913 303 1007T583 1102Q710 1102 783 1054T895 903H900Q908 942 916 978T933 1043T947 1087H1185Q1179 1065 1169 1018T1143 900Q1116 762 1052 431T886 -425H639L724
9L758 162H754Q680 65 597 22T396 -21ZM496 154Q614 154 687 226T799 445Q814 483 824 525T839 610T844 688Q844 806 794 867T648 929Q534 929 467 863Q422 818 390 736T340 558T323 379Q323 269 365 212T496 154Z" />
<glyph unicode="r" horiz-adv-x="759" d="M802 881Q742 896 696 896Q618 896 557 854T452 730T386 531L282 0H35L196 830Q202 861 208 892T218 954Q224 986 229 1018T238 1082H474L450 911L442 861H446Q517 995 585 1048T743 1102Q788 1102 844 1088L802 881Z" />
<glyph unicode="s" horiz-adv-x="1101" d="M969 328Q969 158 842 69T473 -20Q281 -20 170 47T17 255L233 298Q258 218 318 183T492 148Q737 148 737 302Q737 356 692 390Q647 421 498 458Q375 491 303 530Q223 574 186 635T149 778Q149 933 271 1016T619 1099Q816
1099 916 1031T1040 822L818 794Q800 867 747 899T603 931Q493 931 437 898T380 801Q380 765 400 741T459 698Q496 680 638 643Q772 609 844 562Q908 520 938 463T969 328Z" />
<glyph unicode="t" horiz-adv-x="644" d="M342 -17Q231 -17 170 39T108 195Q108 262 124 343L234 912H94L127 1082H277L404 1332H561L513 1082H715L683 912H479L368 340Q357 281 357 249Q357 204 380 182T445 159Q481 159 550 172L523 7Q436 -17 342 -17Z" />
<glyph unicode="u" horiz-adv-x="1214" d="M759 185Q680 75 592 28T388 -19Q238 -19 162 54T85 265Q85 284 88 313T96 374T106 429L233 1082H480L359 470Q336 358 336 310Q336 169 497 169Q570 169 635 208T746 316T810 476L928 1082H1176L1010 231Q1001 189 992
131T972 0H736Q736 7 741 44T752 123T762 185H759Z" />
<glyph unicode="v" horiz-adv-x="1101" d="M1195 1082L584 0H289L111 1082H366L447 444Q449 427 452 392T459 315T466 237L469 186L492 236Q517 290 541 341T590 441L929 1082H1195Z" />
<glyph unicode="w" horiz-adv-x="1555" d="M765 706L444 0H177L100 1082H331L354 373Q355 335 355 297T356 220Q376 267 395 315T436 410L746 1082H1011L1053 410Q1056 360 1057 313T1059 220Q1070 247 1085 284T1120 367L1428 1082H1664L1161 0H893L852 673L847
905Q824 845 804 796T765 706Z" />
<glyph unicode="x" horiz-adv-x="1101" d="M524 403L180 0H-87L415 560L141 1082H399L579 710L893 1082H1167L688 557L978 0H718L524 403Z" />
<glyph unicode="y" horiz-adv-x="1101" d="M64 -425Q-23 -425 -95 -408L-60 -233Q-16 -242 24 -242Q108 -242 171 -190T298 -28L326 20L112 1082H367L452 551Q457 518 463 471T475 374T485 287T489 233Q494 243 499 253T509 275L642 546L925 1082H1192L547 -38Q438
-216 372 -285Q305 -356 231 -390T64 -425Z" />
<glyph unicode="z" horiz-adv-x="1024" d="M876 183L841 0H-11L22 178L678 900H196L231 1082H1005L971 902L317 183H876Z" />
<glyph unicode="{" horiz-adv-x="759" d="M381 -425Q264 -425 197 -363T129 -193Q129 -144 140 -87L199 214Q207 250 207 285Q207 364 160 402T20 444L53 614Q279 619 323 844L391 1190Q420 1335 500 1409T731 1484H906L873 1314H801Q717 1314 672 1268T604 1106L541
781Q522 686 454 620T290 532L289 529Q361 510 404 460T448 334Q448 307 442 279L379 -50Q374 -72 371 -99T368 -143Q368 -197 401 -226T498 -255H568L535 -425H381Z" />
<glyph unicode="|" horiz-adv-x="559" d="M428 1484V-435H198V1484H428Z" />
<glyph unicode="}" horiz-adv-x="759" d="M369 1485Q485 1485 552 1423T620 1253Q620 1203 609 1146L550 845Q542 810 542 774Q542 695 588 657T730 616L696 445Q470 440 426 215L358 -131Q328 -280 247 -352T18 -425H-156L-123 -255H-52Q33 -255 77 -209T145
-47L208 278Q227 373 295 440T460 528V530Q387 549 345 600T302 726Q302 753 307 780L371 1109Q376 1132 378 1159T381 1203Q381 1257 348 1285T251 1314H182L215 1485H369Z" />
<glyph unicode="~" horiz-adv-x="1196" d="M884 528Q811 528 739 549T592 597Q458 643 372 643Q302 643 243 622T119 555V745Q232 829 388 829Q458 829 528 811T671 767Q733 746 775 734T847 717T902 712Q1034 712 1149 804V608Q1086 565 1028 547T884 528Z" />
<glyph unicode="&#xa0;" horiz-adv-x="569" />
<glyph unicode="&#xa1;" horiz-adv-x="682" d="M571 1082L522 835H265L314 1082H571ZM256 665H459L296 -327H35L256 665Z" />
<glyph unicode="&#xa2;" horiz-adv-x="1139" d="M553 311Q642 311 702 365T798 527L1030 477Q976 313 865 230T585 136L553 -31H404L437 143Q277 167 190 274T103 557Q103 668 125 756Q149 857 187 939T277 1081Q345 1161 437 1205T653 1256L683 1409H832L801
1249Q940 1227 1021 1138T1112 911L864 887Q858 983 812 1032T684 1082Q570 1082 505 1011Q467 970 437 902T384 739Q372 684 367 638T361 556Q361 311 553 311Z" />
<glyph unicode="&#xa3;" horiz-adv-x="1139" d="M1094 345Q1054 175 945 88T671 0H-38L-2 188Q93 229 150 299T230 481L256 611H69L99 767H279L332 1034Q371 1240 482 1335T787 1430Q953 1430 1054 1356T1175 1153L957 1105Q941 1182 895 1217T776 1253Q686 1253
637 1204T567 1042L513 767H839L809 611H482L455 478Q435 376 376 303T223 191H649Q747 191 808 235T894 379L1094 345Z" />
<glyph unicode="&#xa4;" horiz-adv-x="1139" d="M154 684Q154 811 220 915L98 1037L238 1176L358 1053Q463 1120 589 1120Q715 1120 819 1054L941 1176L1081 1036L959 914Q1025 809 1025 684Q1025 558 959 455L1082 333L943 192L820 315Q715 250 589 250Q461 250
359 315L234 188L95 329L219 454Q154 557 154 684ZM356 686Q356 623 387 570T472 485T589 453Q653 453 705 484T789 569T821 686Q821 751 790 803T707 887T589 919Q525 919 473 888T388 803T356 686Z" />
<glyph unicode="&#xa5;" horiz-adv-x="1139" d="M633 258L582 0H342L392 258H41L68 399H420L452 558H99L126 697H417L172 1409H426L611 796L1037 1409H1302L780 697H1071L1044 558H691L660 399H1013L986 258H633Z" />
<glyph unicode="&#xa6;" horiz-adv-x="559" d="M429 1484V726H199V1484H429ZM429 324V-435H199V324H429Z" />
<glyph unicode="&#xa7;" horiz-adv-x="1139" d="M1056 670Q1056 558 995 486T799 375Q931 298 931 150Q931 -26 797 -118T411 -210Q207 -210 97 -144T-39 63L172 106Q193 22 254 -15T426 -53Q564 -53 636 -10T708 113Q708 156 687 185T626 236Q578 264 420 305Q97
385 97 614Q97 828 370 893Q229 974 229 1127Q229 1286 350 1366T710 1446Q904 1446 1009 1378T1127 1178L910 1153Q895 1223 839 1256T694 1289Q452 1289 452 1146Q452 1103 487 1069Q516 1040 570 1019T708 975Q888 929 972 854T1056 670ZM323 647Q323 603 348
571T423 513Q470 488 583 459Q701 466 766 507T832 619Q832 660 814 690T759 744Q704 778 558 815Q451 809 387 765T323 647Z" />
<glyph unicode="&#xa8;" horiz-adv-x="682" d="M795 1413L755 1206H552L593 1413H795ZM376 1413L336 1206H136L175 1413H376Z" />
<glyph unicode="&#xa9;" horiz-adv-x="1509" d="M1508 707Q1508 514 1412 346Q1315 177 1147 81T785 -16Q589 -16 419 85Q250 186 156 352T62 707Q62 901 159 1068Q256 1236 424 1333T785 1430Q979 1430 1148 1333Q1316 1236 1412 1069T1508 707ZM1403 707Q1403
873 1320 1014Q1237 1156 1094 1239T785 1322Q625 1322 483 1242Q341 1161 256 1018T171 707Q171 542 254 399Q336 255 478 173T785 90Q952 90 1095 173Q1238 256 1320 399T1403 707ZM798 283Q606 283 501 394T396 709Q396 912 497 1019T789 1127Q1043 1127 1138
905L996 866Q968 930 917 964T793 998Q678 998 619 925T559 709Q559 567 622 490T798 412Q942 412 1006 559L1151 516Q1092 392 1006 338T798 283Z" />
<glyph unicode="&#xaa;" horiz-adv-x="758" d="M694 684Q628 684 593 711T557 785L560 826H557Q497 739 440 708T306 676Q213 676 156 731T99 875Q99 995 184 1057T456 1123L597 1125Q613 1202 613 1221Q613 1310 516 1310Q450 1310 415 1284T366 1204L208 1222Q231
1318 307 1370T518 1423Q651 1423 715 1374T780 1229Q780 1211 777 1191T769 1148L717 888Q716 875 715 863T712 839Q712 792 763 792Q780 792 805 799L793 696Q758 684 694 684ZM280 898Q280 848 306 823T375 798Q419 798 457 820T524 881T565 970L579 1027L467
1025Q375 1022 328 991T280 898Z" />
<glyph unicode="&#xab;" horiz-adv-x="1139" d="M967 173L962 140H754L537 502L550 570L902 939H1114L1108 899L752 531L967 173ZM502 173L497 140H290L73 502L87 570L438 939H650L644 899L289 531L502 173Z" />
<glyph unicode="&#xac;" horiz-adv-x="1196" d="M1100 780V154H902V582H83V780H1100Z" />
<glyph unicode="&#xad;" horiz-adv-x="682" d="M627 643L586 427H72L114 643H627Z" />
<glyph unicode="&#xae;" horiz-adv-x="1509" d="M1508 707Q1508 514 1412 346Q1315 177 1147 81T785 -16Q589 -16 419 85Q250 186 156 352T62 707Q62 901 159 1068Q256 1236 424 1333T785 1430Q979 1430 1148 1333Q1316 1236 1412 1069T1508 707ZM1403 707Q1403
873 1320 1014Q1237 1156 1094 1239T785 1322Q625 1322 483 1242Q341 1161 256 1018T171 707Q171 542 254 399Q336 255 478 173T785 90Q952 90 1095 173Q1238 256 1320 399T1403 707ZM648 615V294H487V1115H809Q958 1115 1034 1051T1110 874Q1110 778 1061 718T931
635L1147 294H964L779 615H648ZM948 872Q948 934 907 965T793 997H648V733H804Q875 733 911 771T948 872Z" />
<glyph unicode="&#xaf;" horiz-adv-x="1131" d="M1148 1571V1469H-17V1571H1148Z" />
<glyph unicode="&#xb0;" horiz-adv-x="819" d="M810 1122Q810 1037 769 968T657 858T501 817Q416 817 346 858T233 968T191 1122Q191 1207 233 1276T345 1386T500 1427Q587 1427 657 1386T768 1276T810 1122ZM668 1122Q668 1194 620 1243T500 1292Q428 1292 379
1242T330 1122Q330 1051 380 1001T500 950Q570 950 619 1000T668 1122Z" />
<glyph unicode="&#xb1;" horiz-adv-x="1124" d="M687 698V339H488V698H80V895H488V1253H687V895H1096V698H687ZM1096 197V0H80V197H1096Z" />
<glyph unicode="&#xb2;" horiz-adv-x="682" d="M57 652L79 766Q108 812 148 851Q174 876 203 899T271 947T366 1005Q446 1050 484 1080Q525 1113 544 1145T563 1218Q563 1254 537 1279T466 1304Q414 1304 378 1275T329 1193L179 1220Q210 1324 282 1374T479 1424Q596
1424 663 1371T731 1228Q731 1171 709 1128Q688 1085 654 1052T577 990Q552 973 520 954T447 911Q384 876 341 847T275 785H657L634 652H57Z" />
<glyph unicode="&#xb3;" horiz-adv-x="682" d="M338 1100H397Q471 1100 513 1130T556 1215Q556 1259 531 1283T460 1308Q407 1308 372 1281T322 1200L171 1224Q200 1326 273 1375T476 1424Q592 1424 659 1376T727 1237Q727 1160 675 1108T532 1043L531 1041Q598
1029 639 988T680 881Q680 773 594 708T363 642Q112 642 82 852L245 874Q254 817 287 788T375 759Q435 759 472 791T510 883Q510 930 477 955T381 980H315L338 1100Z" />
<glyph unicode="&#xb4;" horiz-adv-x="682" d="M732 1466L357 1189H228L233 1216L482 1504H739L732 1466Z" />
<glyph unicode="&#xb5;" horiz-adv-x="1180" d="M288 -45L215 -425H-32L260 1082H508L384 450Q379 420 376 392T372 337Q372 168 509 168Q601 168 668 253T762 493L876 1082H1124L973 308Q964 265 964 238Q964 168 1017 168Q1037 168 1066 175L1048 3Q954 -20
882 -20Q801 -20 765 14T727 125L728 166H724Q675 76 614 28T469 -20Q409 -20 368 3T310 66H306L288 -45Z" />
<glyph unicode="&#xb6;" horiz-adv-x="1126" d="M622 1280V-264H481V694Q313 694 216 786T119 1049Q119 1218 217 1313T489 1409H1096V1280H966V-264H825V1280H622Z" />
<glyph unicode="&#xb7;" horiz-adv-x="682" d="M510 779L457 503H200L253 779H510Z" />
<glyph unicode="&#xb8;" horiz-adv-x="682" d="M361 -87Q434 -90 476 -123T519 -221Q519 -318 438 -371T188 -425Q163 -425 137 -424T82 -419L109 -310Q151 -317 193 -317Q277 -317 314 -298T351 -236Q351 -170 238 -170Q222 -171 209 -171T184 -172L283 0H412L361 -87Z" />
<glyph unicode="&#xb9;" horiz-adv-x="682" d="M651 766L628 650H86L108 766H301L401 1281L195 1163L220 1288L433 1412H591L466 766H651Z" />
<glyph unicode="&#xba;" horiz-adv-x="748" d="M407 676Q264 676 183 754T102 970Q102 1033 115 1096Q149 1251 253 1337T517 1423Q667 1423 746 1348T826 1139Q826 1079 815 1024Q784 861 677 769T407 676ZM505 1295Q424 1295 375 1248Q346 1220 326 1175T297
1078T287 971Q287 803 422 803Q472 803 501 815T555 853Q582 882 602 932T632 1038T643 1137Q643 1217 608 1256T505 1295Z" />
<glyph unicode="&#xbb;" horiz-adv-x="1139" d="M1055 506L703 140H491L498 180L854 546L640 906L645 939H852L1068 574L1055 506ZM590 506L240 140H27L33 180L389 546L176 906L181 939H388L604 574L590 506Z" />
<glyph unicode="&#xbc;" horiz-adv-x="1708" d="M663 766L640 650H98L120 766H313L413 1281L207 1163L232 1288L445 1412H603L478 766H663ZM1537 1409L428 0H246L1353 1409H1537ZM1426 154L1396 1H1230L1260 154H894L919 290L1344 763H1544L1452 287H1562L1536
154H1426ZM1355 627Q1325 588 1304 561T1262 510L1062 287H1286L1338 541L1355 627Z" />
<glyph unicode="&#xbd;" horiz-adv-x="1708" d="M902 766L879 650H337L359 766H552L652 1281L446 1163L471 1288L684 1412H842L717 766H902ZM1520 1409L411 0H229L1336 1409H1520ZM945 1L967 115Q996 161 1036 200Q1062 225 1091 248T1159 296T1254 354Q1334 399
1372 429Q1413 462 1432 494T1451 567Q1451 603 1425 628T1354 653Q1302 653 1266 624T1217 542L1067 569Q1098 673 1170 723T1367 773Q1484 773 1551 720T1619 577Q1619 520 1597 477Q1576 434 1542 401T1465 339Q1440 322 1408 303T1335 260Q1272 225 1229 196T1163
134H1545L1522 1H945Z" />
<glyph unicode="&#xbe;" horiz-adv-x="1708" d="M375 1100H434Q508 1100 550 1130T593 1215Q593 1259 568 1283T497 1308Q444 1308 409 1281T359 1200L208 1224Q237 1326 310 1375T513 1424Q629 1424 696 1376T764 1237Q764 1160 712 1108T569 1043L568 1041Q635
1029 676 988T717 881Q717 773 631 708T400 642Q149 642 119 852L282 874Q291 817 324 788T412 759Q472 759 509 791T547 883Q547 930 514 955T418 980H352L375 1100ZM1537 1409L428 0H246L1353 1409H1537ZM1426 154L1396 1H1230L1260 154H894L919 290L1344 763H1544L1452
287H1562L1536 154H1426ZM1355 627Q1325 588 1304 561T1262 510L1062 287H1286L1338 541L1355 627Z" />
<glyph unicode="&#xbf;" horiz-adv-x="1251" d="M917 1082L869 835H612L659 1082H917ZM492 -348Q354 -348 252 -305T95 -181T39 8Q39 70 55 120T101 210Q128 254 165 290T259 365T397 449Q445 480 478 504T529 546Q556 573 572 604T594 673H830Q816 594 784 537Q763
498 735 465T659 397T529 311Q465 273 422 243T354 185Q320 150 305 113T290 28Q290 -46 346 -94T509 -142Q631 -142 708 -87T815 74L1047 34Q987 -158 849 -253T492 -348Z" />
<glyph unicode="&#xc0;" horiz-adv-x="1441" d="M420 377L210 0H-56L752 1409H1056L1312 0H1052L991 377H420ZM867 1216Q858 1191 838 1150T789 1052L527 575H966L887 1061Q879 1119 874 1158T867 1216ZM1079 1557L1073 1530H951L650 1759L658 1797H886L1079 1557Z" />
<glyph unicode="&#xc1;" horiz-adv-x="1441" d="M420 377L210 0H-56L752 1409H1056L1312 0H1052L991 377H420ZM867 1216Q858 1191 838 1150T789 1052L527 575H966L887 1061Q879 1119 874 1158T867 1216ZM1269 1759L894 1530H757L763 1557L1030 1797H1277L1269 1759Z" />
<glyph unicode="&#xc2;" horiz-adv-x="1441" d="M420 377L210 0H-56L752 1409H1056L1312 0H1052L991 377H420ZM867 1216Q858 1191 838 1150T789 1052L527 575H966L887 1061Q879 1119 874 1158T867 1216ZM938 1677L692 1530H542L546 1556L847 1820H1068L1257 1556L1253
1530H1122L942 1677H938Z" />
<glyph unicode="&#xc3;" horiz-adv-x="1441" d="M420 377L210 0H-56L752 1409H1056L1312 0H1052L991 377H420ZM867 1216Q858 1191 838 1150T789 1052L527 575H966L887 1061Q879 1119 874 1158T867 1216ZM1057 1530Q1003 1530 952 1561T854 1624T764 1655Q721 1655
693 1629T639 1530H515Q556 1686 622 1750T786 1815Q841 1815 892 1784T990 1722T1077 1690Q1121 1690 1150 1719T1203 1815H1327Q1293 1689 1243 1624Q1208 1577 1162 1554T1057 1530Z" />
<glyph unicode="&#xc4;" horiz-adv-x="1441" d="M420 377L210 0H-56L752 1409H1056L1312 0H1052L991 377H420ZM867 1216Q858 1191 838 1150T789 1052L527 575H966L887 1061Q879 1119 874 1158T867 1216ZM1266 1737L1226 1530H1023L1064 1737H1266ZM847 1737L807
1530H607L646 1737H847Z" />
<glyph unicode="&#xc5;" horiz-adv-x="1441" d="M414 377L204 0H-62L746 1409H1050L1306 0H1046L985 377H414ZM861 1216Q852 1191 832 1150T783 1052L521 575H960L881 1061Q873 1119 868 1158T861 1216ZM1153 1541Q1153 1472 1120 1416T1031 1325T903 1291Q834
1291 777 1325T687 1415T653 1541Q653 1610 687 1666T778 1756T903 1790Q972 1790 1028 1757T1119 1667T1153 1541ZM1033 1541Q1033 1594 996 1631T903 1669Q850 1669 813 1632T775 1541Q775 1485 812 1448T903 1410Q958 1410 995 1448T1033 1541Z" />
<glyph unicode="&#xc6;" horiz-adv-x="2048" d="M438 377L184 0H-92L871 1409H2088L2048 1206H1335L1259 818H1912L1873 620H1221L1140 203H1895L1855 0H846L919 377H438ZM568 575H958L1082 1215H991L855 1004L568 575Z" />
<glyph unicode="&#xc7;" horiz-adv-x="1479" d="M1414 455L1613 347Q1501 160 1337 70T950 -20Q763 -20 626 52Q489 124 418 258T347 569Q347 819 452 1018Q557 1216 745 1323T1170 1430Q1395 1430 1543 1334T1742 1054L1499 988Q1468 1097 1379 1160T1160 1223Q957
1223 822 1107Q720 1023 666 886T611 571Q611 389 704 288T968 186Q1106 186 1218 253T1414 455ZM724 -87Q797 -90 839 -123T882 -221Q882 -318 801 -371T551 -425Q526 -425 500 -424T445 -419L472 -310Q514 -317 556 -317Q640 -317 677 -298T714 -236Q714 -170
601 -170Q585 -171 572 -171T547 -172L646 0H775L724 -87Z" />
<glyph unicode="&#xc8;" horiz-adv-x="1366" d="M1214 204L1174 0H45L318 1409H1406L1367 1205H539L464 818H1231L1192 615H424L345 204H1214ZM1014 1557L1008 1530H886L585 1759L593 1797H821L1014 1557Z" />
<glyph unicode="&#xc9;" horiz-adv-x="1366" d="M1214 204L1174 0H45L318 1409H1406L1367 1205H539L464 818H1231L1192 615H424L345 204H1214ZM1230 1759L855 1530H718L724 1557L991 1797H1238L1230 1759Z" />
<glyph unicode="&#xca;" horiz-adv-x="1366" d="M1214 204L1174 0H45L318 1409H1406L1367 1205H539L464 818H1231L1192 615H424L345 204H1214ZM919 1677L673 1530H523L527 1556L828 1820H1049L1238 1556L1234 1530H1103L923 1677H919Z" />
<glyph unicode="&#xcb;" horiz-adv-x="1366" d="M1214 204L1174 0H45L318 1409H1406L1367 1205H539L464 818H1231L1192 615H424L345 204H1214ZM1232 1737L1192 1530H989L1030 1737H1232ZM813 1737L773 1530H573L612 1737H813Z" />
<glyph unicode="&#xcc;" horiz-adv-x="569" d="M585 1409L311 0H51L324 1409H585ZM874 1557L868 1530H746L445 1759L453 1797H681L874 1557Z" />
<glyph unicode="&#xcd;" horiz-adv-x="569" d="M585 1409L311 0H51L324 1409H585ZM851 1759L476 1530H339L345 1557L612 1797H859L851 1759Z" />
<glyph unicode="&#xce;" horiz-adv-x="569" d="M585 1409L311 0H51L324 1409H585ZM765 1677L519 1530H369L373 1556L674 1820H895L1084 1556L1080 1530H949L769 1677H765Z" />
<glyph unicode="&#xcf;" horiz-adv-x="569" d="M585 1409L311 0H51L324 1409H585ZM1078 1737L1038 1530H835L876 1737H1078ZM659 1737L619 1530H419L458 1737H659Z" />
<glyph unicode="&#xd0;" horiz-adv-x="1479" d="M744 1409Q961 1409 1113 1338T1345 1132T1425 802Q1425 567 1326 386Q1227 206 1039 103T613 0H45L163 612H27L65 809H202L319 1409H744ZM344 203H599Q771 203 903 275Q1035 346 1105 480T1176 794Q1176 993 1064
1099T744 1206H539L462 809H835L796 612H424L344 203Z" />
<glyph unicode="&#xd1;" horiz-adv-x="1479" d="M453 909L276 0H45L319 1409H623L1052 243Q1066 344 1075 403T1094 509L1271 1409H1503L1229 0H918L492 1157Q481 1075 471 1013T453 909ZM1095 1530Q1041 1530 990 1561T892 1624T802 1655Q759 1655 731 1629T677
1530H553Q594 1686 660 1750T824 1815Q879 1815 930 1784T1028 1722T1115 1690Q1159 1690 1188 1719T1241 1815H1365Q1331 1689 1281 1624Q1246 1577 1200 1554T1095 1530Z" />
<glyph unicode="&#xd2;" horiz-adv-x="1593" d="M931 1430Q1124 1430 1262 1360T1476 1159T1551 851Q1550 598 1444 397Q1338 195 1150 88T721 -20Q526 -20 384 55Q248 127 176 260T104 573Q104 810 210 1012Q315 1214 502 1322T931 1430ZM919 1223Q745 1223 622
1144Q540 1091 484 1000T397 799T367 575Q367 383 462 285T733 186Q906 186 1029 265Q1110 318 1167 406T1255 605T1285 834Q1285 1020 1191 1121T919 1223ZM1110 1557L1104 1530H982L681 1759L689 1797H917L1110 1557Z" />
<glyph unicode="&#xd3;" horiz-adv-x="1593" d="M931 1430Q1124 1430 1262 1360T1476 1159T1551 851Q1550 598 1444 397Q1338 195 1150 88T721 -20Q526 -20 384 55Q248 127 176 260T104 573Q104 810 210 1012Q315 1214 502 1322T931 1430ZM919 1223Q745 1223 622
1144Q540 1091 484 1000T397 799T367 575Q367 383 462 285T733 186Q906 186 1029 265Q1110 318 1167 406T1255 605T1285 834Q1285 1020 1191 1121T919 1223ZM1356 1759L981 1530H844L850 1557L1117 1797H1364L1356 1759Z" />
<glyph unicode="&#xd4;" horiz-adv-x="1593" d="M931 1430Q1124 1430 1262 1360T1476 1159T1551 851Q1550 598 1444 397Q1338 195 1150 88T721 -20Q526 -20 384 55Q248 127 176 260T104 573Q104 810 210 1012Q315 1214 502 1322T931 1430ZM919 1223Q745 1223 622
1144Q540 1091 484 1000T397 799T367 575Q367 383 462 285T733 186Q906 186 1029 265Q1110 318 1167 406T1255 605T1285 834Q1285 1020 1191 1121T919 1223ZM980 1677L734 1530H584L588 1556L889 1820H1110L1299 1556L1295 1530H1164L984 1677H980Z" />
<glyph unicode="&#xd5;" horiz-adv-x="1593" d="M931 1430Q1124 1430 1262 1360T1476 1159T1551 851Q1550 598 1444 397Q1338 195 1150 88T721 -20Q526 -20 384 55Q248 127 176 260T104 573Q104 810 210 1012Q315 1214 502 1322T931 1430ZM919 1223Q745 1223 622
1144Q540 1091 484 1000T397 799T367 575Q367 383 462 285T733 186Q906 186 1029 265Q1110 318 1167 406T1255 605T1285 834Q1285 1020 1191 1121T919 1223ZM1136 1530Q1082 1530 1031 1561T933 1624T843 1655Q800 1655 772 1629T718 1530H594Q635 1686 701 1750T865
1815Q920 1815 971 1784T1069 1722T1156 1690Q1200 1690 1229 1719T1282 1815H1406Q1372 1689 1322 1624Q1287 1577 1241 1554T1136 1530Z" />
<glyph unicode="&#xd6;" horiz-adv-x="1593" d="M931 1430Q1124 1430 1262 1360T1476 1159T1551 851Q1550 598 1444 397Q1338 195 1150 88T721 -20Q526 -20 384 55Q248 127 176 260T104 573Q104 810 210 1012Q315 1214 502 1322T931 1430ZM919 1223Q745 1223 622
1144Q540 1091 484 1000T397 799T367 575Q367 383 462 285T733 186Q906 186 1029 265Q1110 318 1167 406T1255 605T1285 834Q1285 1020 1191 1121T919 1223ZM1313 1737L1273 1530H1070L1111 1737H1313ZM894 1737L854 1530H654L693 1737H894Z" />
<glyph unicode="&#xd7;" horiz-adv-x="1196" d="M637 544L281 187L141 327L497 684L145 1036L285 1174L636 823L987 1175L1128 1035L776 683L1128 332L989 190L637 544Z" />
<glyph unicode="&#xd8;" horiz-adv-x="1593" d="M1431 1220Q1548 1073 1548 851Q1547 598 1441 397Q1334 195 1146 88T718 -20Q485 -20 336 82L206 -53H5L228 178Q100 333 100 573Q100 810 206 1012Q311 1214 499 1322T928 1430Q1168 1430 1327 1318L1470 1466H1669L1431
1220ZM916 1223Q741 1223 619 1144Q537 1091 481 1000T394 799T364 575Q364 448 405 363L1161 1145Q1068 1223 916 1223ZM1282 834Q1282 944 1247 1026L498 251Q586 186 730 186Q903 186 1025 265Q1107 318 1164 406T1251 605T1282 834Z" />
<glyph unicode="&#xd9;" horiz-adv-x="1479" d="M666 -20Q412 -20 271 98T130 431Q130 475 137 536T153 635L302 1409H562L406 588Q389 500 389 426Q389 312 466 249T682 186Q856 186 951 270T1082 541L1250 1409H1510L1340 530Q1285 252 1119 116T666 -20ZM1074
1557L1068 1530H946L645 1759L653 1797H881L1074 1557Z" />
<glyph unicode="&#xda;" horiz-adv-x="1479" d="M666 -20Q412 -20 271 98T130 431Q130 475 137 536T153 635L302 1409H562L406 588Q389 500 389 426Q389 312 466 249T682 186Q856 186 951 270T1082 541L1250 1409H1510L1340 530Q1285 252 1119 116T666 -20ZM1297
1759L922 1530H785L791 1557L1058 1797H1305L1297 1759Z" />
<glyph unicode="&#xdb;" horiz-adv-x="1479" d="M666 -20Q412 -20 271 98T130 431Q130 475 137 536T153 635L302 1409H562L406 588Q389 500 389 426Q389 312 466 249T682 186Q856 186 951 270T1082 541L1250 1409H1510L1340 530Q1285 252 1119 116T666 -20ZM957
1677L711 1530H561L565 1556L866 1820H1087L1276 1556L1272 1530H1141L961 1677H957Z" />
<glyph unicode="&#xdc;" horiz-adv-x="1479" d="M666 -20Q412 -20 271 98T130 431Q130 475 137 536T153 635L302 1409H562L406 588Q389 500 389 426Q389 312 466 249T682 186Q856 186 951 270T1082 541L1250 1409H1510L1340 530Q1285 252 1119 116T666 -20ZM1271
1737L1231 1530H1028L1069 1737H1271ZM852 1737L812 1530H612L651 1737H852Z" />
<glyph unicode="&#xdd;" horiz-adv-x="1366" d="M819 580L707 0H447L560 580L186 1409H446L720 781L1223 1409H1510L819 580ZM1223 1759L848 1530H711L717 1557L984 1797H1231L1223 1759Z" />
<glyph unicode="&#xde;" horiz-adv-x="1366" d="M361 280L305 0H45L319 1409H579L534 1175H807Q1050 1175 1185 1067T1320 764Q1320 615 1251 506T1054 339T754 280H361ZM400 481H722Q889 481 972 546T1056 750Q1056 858 987 914T786 971H495L400 481Z" />
<glyph unicode="&#xdf;" horiz-adv-x="1251" d="M1142 333Q1142 168 1033 73T737 -23Q641 -23 561 -8T424 33L488 205Q560 172 612 161T720 149Q810 149 857 193T904 316Q904 369 875 412T777 510Q710 562 680 614T649 731Q649 801 684 856T798 966Q877 1021 911
1068T946 1174Q946 1232 902 1267T776 1302Q651 1302 579 1233T479 1021L282 0H35L235 1027Q284 1264 419 1374T785 1484Q965 1484 1070 1406T1175 1196Q1175 1036 1028 929Q937 863 910 833Q881 802 881 765Q881 718 924 673Q939 657 960 638T1012 594Q1142 487
1142 333Z" />
<glyph unicode="&#xe0;" horiz-adv-x="1139" d="M906 -10Q808 -10 758 31T708 143Q708 161 709 177T713 207H707Q623 78 539 29T334 -20Q194 -20 109 63T24 278Q24 463 153 557T570 657L774 660Q795 755 795 790Q795 863 756 898T643 934Q541 934 490 896T419
782L184 813Q222 958 338 1030T650 1102Q845 1102 942 1027T1040 807Q1040 760 1018 650L946 289Q937 240 937 211Q937 172 962 158T1016 144Q1048 144 1078 151L1064 10Q1025 -3 986 -6T906 -10ZM279 312Q279 240 321 198T434 156Q520 156 590 210Q639 245 673
297T722 411L746 514L571 513Q492 511 439 497T350 457Q316 433 298 397T279 312ZM851 1216L846 1189H718L419 1466L426 1504H667L851 1216Z" />
<glyph unicode="&#xe1;" horiz-adv-x="1139" d="M906 -10Q808 -10 758 31T708 143Q708 161 709 177T713 207H707Q623 78 539 29T334 -20Q194 -20 109 63T24 278Q24 463 153 557T570 657L774 660Q795 755 795 790Q795 863 756 898T643 934Q541 934 490 896T419
782L184 813Q222 958 338 1030T650 1102Q845 1102 942 1027T1040 807Q1040 760 1018 650L946 289Q937 240 937 211Q937 172 962 158T1016 144Q1048 144 1078 151L1064 10Q1025 -3 986 -6T906 -10ZM279 312Q279 240 321 198T434 156Q520 156 590 210Q639 245 673
297T722 411L746 514L571 513Q492 511 439 497T350 457Q316 433 298 397T279 312ZM1045 1466L670 1189H541L546 1216L795 1504H1052L1045 1466Z" />
<glyph unicode="&#xe2;" horiz-adv-x="1139" d="M906 -10Q808 -10 758 31T708 143Q708 161 709 177T713 207H707Q623 78 539 29T334 -20Q194 -20 109 63T24 278Q24 463 153 557T570 657L774 660Q795 755 795 790Q795 863 756 898T643 934Q541 934 490 896T419
782L184 813Q222 958 338 1030T650 1102Q845 1102 942 1027T1040 807Q1040 760 1018 650L946 289Q937 240 937 211Q937 172 962 158T1016 144Q1048 144 1078 151L1064 10Q1025 -3 986 -6T906 -10ZM279 312Q279 240 321 198T434 156Q520 156 590 210Q639 245 673
297T722 411L746 514L571 513Q492 511 439 497T350 457Q316 433 298 397T279 312ZM723 1373L470 1189H318L323 1214L632 1516H852L1035 1214L1030 1189H899L727 1373H723Z" />
<glyph unicode="&#xe3;" horiz-adv-x="1139" d="M906 -10Q808 -10 758 31T708 143Q708 161 709 177T713 207H707Q623 78 539 29T334 -20Q194 -20 109 63T24 278Q24 463 153 557T570 657L774 660Q795 755 795 790Q795 863 756 898T643 934Q541 934 490 896T419
782L184 813Q222 958 338 1030T650 1102Q845 1102 942 1027T1040 807Q1040 760 1018 650L946 289Q937 240 937 211Q937 172 962 158T1016 144Q1048 144 1078 151L1064 10Q1025 -3 986 -6T906 -10ZM279 312Q279 240 321 198T434 156Q520 156 590 210Q639 245 673
297T722 411L746 514L571 513Q492 511 439 497T350 457Q316 433 298 397T279 312ZM833 1189Q779 1189 728 1219T630 1280T540 1311Q496 1311 466 1284T412 1189H291Q333 1345 399 1409T562 1474Q617 1474 668 1444T766 1383T854 1352Q899 1352 929 1380T983 1474H1103Q1073
1361 1031 1298Q994 1242 945 1216T833 1189Z" />
<glyph unicode="&#xe4;" horiz-adv-x="1139" d="M906 -10Q808 -10 758 31T708 143Q708 161 709 177T713 207H707Q623 78 539 29T334 -20Q194 -20 109 63T24 278Q24 463 153 557T570 657L774 660Q795 755 795 790Q795 863 756 898T643 934Q541 934 490 896T419
782L184 813Q222 958 338 1030T650 1102Q845 1102 942 1027T1040 807Q1040 760 1018 650L946 289Q937 240 937 211Q937 172 962 158T1016 144Q1048 144 1078 151L1064 10Q1025 -3 986 -6T906 -10ZM279 312Q279 240 321 198T434 156Q520 156 590 210Q639 245 673
297T722 411L746 514L571 513Q492 511 439 497T350 457Q316 433 298 397T279 312ZM1028 1413L988 1206H785L826 1413H1028ZM609 1413L569 1206H369L408 1413H609Z" />
<glyph unicode="&#xe5;" horiz-adv-x="1139" d="M906 -10Q808 -10 758 31T708 143Q708 161 709 177T713 207H707Q623 78 539 29T334 -20Q194 -20 109 63T24 278Q24 463 153 557T570 657L774 660Q795 755 795 790Q795 863 756 898T643 934Q541 934 490 896T419
782L184 813Q222 958 338 1030T650 1102Q845 1102 942 1027T1040 807Q1040 760 1018 650L946 289Q937 240 937 211Q937 172 962 158T1016 144Q1048 144 1078 151L1064 10Q1025 -3 986 -6T906 -10ZM279 312Q279 240 321 198T434 156Q520 156 590 210Q639 245 673
297T722 411L746 514L571 513Q492 511 439 497T350 457Q316 433 298 397T279 312ZM965 1424Q965 1355 932 1299T843 1208T715 1174Q646 1174 589 1208T499 1298T465 1424Q465 1493 499 1549T590 1639T715 1673Q784 1673 840 1640T931 1550T965 1424ZM845 1424Q845
1477 808 1514T715 1552Q662 1552 625 1515T587 1424Q587 1368 624 1331T715 1293Q770 1293 807 1331T845 1424Z" />
<glyph unicode="&#xe6;" horiz-adv-x="1821" d="M1014 485Q1008 450 1007 388Q1007 273 1058 212T1211 150Q1289 150 1348 193T1443 323L1653 252Q1579 102 1470 41T1191 -20Q1042 -20 945 40T803 215Q738 119 660 66Q597 21 525 1T348 -20Q238 -20 160 34Q102
73 71 136T39 278Q39 467 174 562T589 659L796 660Q816 755 816 790Q816 934 662 934Q558 934 506 896T433 782L199 813Q237 958 355 1030T670 1102Q882 1102 979 974Q1114 1102 1322 1102Q1526 1102 1637 996T1749 697Q1749 648 1743 592T1726 485H1014ZM1044
656H1515L1518 717Q1518 830 1466 884T1323 939Q1218 939 1146 867T1044 656ZM302 312Q302 238 340 197T448 156Q528 156 597 203Q652 238 691 295T746 422L767 511L591 510Q474 508 408 476Q302 428 302 312Z" />
<glyph unicode="&#xe7;" horiz-adv-x="1101" d="M514 156Q603 156 663 210T759 371L991 322Q880 -20 502 -20Q291 -20 178 91T64 402Q64 599 141 770Q218 941 345 1021T662 1102Q844 1102 952 1010T1073 755L825 732Q819 827 773 876T645 926Q525 926 458 847T344
579Q334 524 328 479T322 401Q322 156 514 156ZM534 -87Q607 -90 649 -123T692 -221Q692 -318 611 -371T361 -425Q336 -425 310 -424T255 -419L282 -310Q324 -317 366 -317Q450 -317 487 -298T524 -236Q524 -170 411 -170Q395 -171 382 -171T357 -172L456 0H585L534
-87Z" />
<glyph unicode="&#xe8;" horiz-adv-x="1139" d="M324 485Q317 450 316 388Q316 273 369 212T528 150Q610 150 671 194T770 323L979 252Q905 103 794 42T508 -20Q299 -20 182 94T65 414Q65 618 137 776Q208 932 339 1017T641 1102Q848 1102 962 996T1076 697Q1076
596 1052 485H324ZM354 656H841L845 717Q845 830 791 884T642 939Q533 939 459 866T354 656ZM847 1216L842 1189H714L415 1466L422 1504H663L847 1216Z" />
<glyph unicode="&#xe9;" horiz-adv-x="1139" d="M324 485Q317 450 316 388Q316 273 369 212T528 150Q610 150 671 194T770 323L979 252Q905 103 794 42T508 -20Q299 -20 182 94T65 414Q65 618 137 776Q208 932 339 1017T641 1102Q848 1102 962 996T1076 697Q1076
596 1052 485H324ZM354 656H841L845 717Q845 830 791 884T642 939Q533 939 459 866T354 656ZM1031 1466L656 1189H527L532 1216L781 1504H1038L1031 1466Z" />
<glyph unicode="&#xea;" horiz-adv-x="1139" d="M324 485Q317 450 316 388Q316 273 369 212T528 150Q610 150 671 194T770 323L979 252Q905 103 794 42T508 -20Q299 -20 182 94T65 414Q65 618 137 776Q208 932 339 1017T641 1102Q848 1102 962 996T1076 697Q1076
596 1052 485H324ZM354 656H841L845 717Q845 830 791 884T642 939Q533 939 459 866T354 656ZM721 1373L468 1189H316L321 1214L630 1516H850L1033 1214L1028 1189H897L725 1373H721Z" />
<glyph unicode="&#xeb;" horiz-adv-x="1139" d="M324 485Q317 450 316 388Q316 273 369 212T528 150Q610 150 671 194T770 323L979 252Q905 103 794 42T508 -20Q299 -20 182 94T65 414Q65 618 137 776Q208 932 339 1017T641 1102Q848 1102 962 996T1076 697Q1076
596 1052 485H324ZM354 656H841L845 717Q845 830 791 884T642 939Q533 939 459 866T354 656ZM1027 1413L987 1206H784L825 1413H1027ZM608 1413L568 1206H368L407 1413H608Z" />
<glyph unicode="&#xec;" horiz-adv-x="569" d="M510 1082L299 0H53L263 1082H510ZM539 1216L534 1189H406L107 1466L114 1504H355L539 1216Z" />
<glyph unicode="&#xed;" horiz-adv-x="569" d="M510 1082L299 0H53L263 1082H510ZM763 1466L388 1189H259L264 1216L513 1504H770L763 1466Z" />
<glyph unicode="&#xee;" horiz-adv-x="569" d="M510 1082L299 0H53L263 1082H510ZM698 1373L445 1189H293L298 1214L607 1516H827L1010 1214L1005 1189H874L702 1373H698Z" />
<glyph unicode="&#xef;" horiz-adv-x="569" d="M510 1082L299 0H53L263 1082H510ZM1013 1413L973 1206H770L811 1413H1013ZM594 1413L554 1206H354L393 1413H594Z" />
<glyph unicode="&#xf0;" horiz-adv-x="1214" d="M649 1313Q536 1422 436 1484H690Q727 1465 763 1441T836 1387L1120 1494L1093 1341L940 1282Q1042 1154 1087 1022T1133 728Q1133 520 1071 355Q1002 171 862 77T515 -18Q303 -18 182 96T61 408Q61 595 148 734Q219
852 342 915T634 979Q701 979 770 957T875 902Q858 986 823 1063T737 1203L461 1091L490 1251L649 1313ZM640 807Q537 807 463 753Q418 719 385 663T335 538T318 393Q318 281 376 218T535 154Q653 154 731 239Q773 280 803 341T849 474T865 616Q865 675 835 720Q808
761 758 784T640 807Z" />
<glyph unicode="&#xf1;" horiz-adv-x="1214" d="M401 606L283 0H35L201 851Q209 893 218 951T239 1082H474Q474 1076 470 1039T459 960T449 897H452Q530 1005 618 1053T822 1101Q973 1101 1049 1028T1125 817Q1125 790 1119 740T1104 653L977 0H731L852 612Q875
726 875 772Q875 913 714 913Q641 913 576 874T464 765T401 606ZM894 1189Q840 1189 789 1219T691 1280T601 1311Q557 1311 527 1284T473 1189H352Q394 1345 460 1409T623 1474Q678 1474 729 1444T827 1383T915 1352Q960 1352 990 1380T1044 1474H1164Q1134 1361
1092 1298Q1055 1242 1006 1216T894 1189Z" />
<glyph unicode="&#xf2;" horiz-adv-x="1214" d="M1150 683Q1150 571 1124 463T1045 268Q965 129 830 55T522 -20Q312 -20 189 97T66 419Q68 622 144 777Q221 933 360 1017T685 1101Q912 1101 1031 992T1150 683ZM892 669Q892 929 671 929Q550 929 478 866Q430
824 396 751T343 592T325 426Q325 290 381 221T547 152Q618 152 668 173T757 238Q816 300 851 414T892 669ZM866 1216L861 1189H733L434 1466L441 1504H682L866 1216Z" />
<glyph unicode="&#xf3;" horiz-adv-x="1214" d="M1150 683Q1150 571 1124 463T1045 268Q965 129 830 55T522 -20Q312 -20 189 97T66 419Q68 622 144 777Q221 933 360 1017T685 1101Q912 1101 1031 992T1150 683ZM892 669Q892 929 671 929Q550 929 478 866Q430
824 396 751T343 592T325 426Q325 290 381 221T547 152Q618 152 668 173T757 238Q816 300 851 414T892 669ZM1094 1466L719 1189H590L595 1216L844 1504H1101L1094 1466Z" />
<glyph unicode="&#xf4;" horiz-adv-x="1214" d="M1150 683Q1150 571 1124 463T1045 268Q965 129 830 55T522 -20Q312 -20 189 97T66 419Q68 622 144 777Q221 933 360 1017T685 1101Q912 1101 1031 992T1150 683ZM892 669Q892 929 671 929Q550 929 478 866Q430
824 396 751T343 592T325 426Q325 290 381 221T547 152Q618 152 668 173T757 238Q816 300 851 414T892 669ZM759 1373L506 1189H354L359 1214L668 1516H888L1071 1214L1066 1189H935L763 1373H759Z" />
<glyph unicode="&#xf5;" horiz-adv-x="1214" d="M1150 683Q1150 571 1124 463T1045 268Q965 129 830 55T522 -20Q312 -20 189 97T66 419Q68 622 144 777Q221 933 360 1017T685 1101Q912 1101 1031 992T1150 683ZM892 669Q892 929 671 929Q550 929 478 866Q430
824 396 751T343 592T325 426Q325 290 381 221T547 152Q618 152 668 173T757 238Q816 300 851 414T892 669ZM866 1189Q812 1189 761 1219T663 1280T573 1311Q529 1311 499 1284T445 1189H324Q366 1345 432 1409T595 1474Q650 1474 701 1444T799 1383T887 1352Q932
1352 962 1380T1016 1474H1136Q1106 1361 1064 1298Q1027 1242 978 1216T866 1189Z" />
<glyph unicode="&#xf6;" horiz-adv-x="1214" d="M1150 683Q1150 571 1124 463T1045 268Q965 129 830 55T522 -20Q312 -20 189 97T66 419Q68 622 144 777Q221 933 360 1017T685 1101Q912 1101 1031 992T1150 683ZM892 669Q892 929 671 929Q550 929 478 866Q430
824 396 751T343 592T325 426Q325 290 381 221T547 152Q618 152 668 173T757 238Q816 300 851 414T892 669ZM1073 1413L1033 1206H830L871 1413H1073ZM654 1413L614 1206H414L453 1413H654Z" />
<glyph unicode="&#xf7;" horiz-adv-x="1124" d="M688 1176V960H473V1176H688ZM1090 780V582H73V780H1090ZM688 404V188H473V404H688Z" />
<glyph unicode="&#xf8;" horiz-adv-x="1251" d="M182 124Q84 237 84 419Q85 622 162 777Q238 933 377 1017T703 1101Q863 1101 974 1043L1037 1116H1219L1081 956Q1167 851 1167 683Q1167 510 1105 366Q1032 178 886 80T540 -18Q396 -18 291 38L226 -38H43L182
124ZM342 426Q342 370 352 322L836 882Q781 929 688 929Q568 929 495 866Q447 824 413 751T360 592T342 426ZM909 669Q909 714 902 748L426 195Q479 154 564 154Q684 154 754 214Q823 274 863 395T909 669Z" />
<glyph unicode="&#xf9;" horiz-adv-x="1214" d="M759 185Q680 75 592 28T388 -19Q238 -19 162 54T85 265Q85 284 88 313T96 374T106 429L233 1082H480L359 470Q336 358 336 310Q336 169 497 169Q570 169 635 208T746 316T810 476L928 1082H1176L1010 231Q1001
189 992 131T972 0H736Q736 7 741 44T752 123T762 185H759ZM867 1216L862 1189H734L435 1466L442 1504H683L867 1216Z" />
<glyph unicode="&#xfa;" horiz-adv-x="1214" d="M759 185Q680 75 592 28T388 -19Q238 -19 162 54T85 265Q85 284 88 313T96 374T106 429L233 1082H480L359 470Q336 358 336 310Q336 169 497 169Q570 169 635 208T746 316T810 476L928 1082H1176L1010 231Q1001
189 992 131T972 0H736Q736 7 741 44T752 123T762 185H759ZM1087 1466L712 1189H583L588 1216L837 1504H1094L1087 1466Z" />
<glyph unicode="&#xfb;" horiz-adv-x="1214" d="M759 185Q680 75 592 28T388 -19Q238 -19 162 54T85 265Q85 284 88 313T96 374T106 429L233 1082H480L359 470Q336 358 336 310Q336 169 497 169Q570 169 635 208T746 316T810 476L928 1082H1176L1010 231Q1001
189 992 131T972 0H736Q736 7 741 44T752 123T762 185H759ZM769 1373L516 1189H364L369 1214L678 1516H898L1081 1214L1076 1189H945L773 1373H769Z" />
<glyph unicode="&#xfc;" horiz-adv-x="1214" d="M759 185Q680 75 592 28T388 -19Q238 -19 162 54T85 265Q85 284 88 313T96 374T106 429L233 1082H480L359 470Q336 358 336 310Q336 169 497 169Q570 169 635 208T746 316T810 476L928 1082H1176L1010 231Q1001
189 992 131T972 0H736Q736 7 741 44T752 123T762 185H759ZM1076 1413L1036 1206H833L874 1413H1076ZM657 1413L617 1206H417L456 1413H657Z" />
<glyph unicode="&#xfd;" horiz-adv-x="1101" d="M64 -425Q-23 -425 -95 -408L-60 -233Q-16 -242 24 -242Q108 -242 171 -190T298 -28L326 20L112 1082H367L452 551Q457 518 463 471T475 374T485 287T489 233Q494 243 499 253T509 275L642 546L925 1082H1192L547
-38Q438 -216 372 -285Q305 -356 231 -390T64 -425ZM1023 1466L648 1189H519L524 1216L773 1504H1030L1023 1466Z" />
<glyph unicode="&#xfe;" horiz-adv-x="1214" d="M626 -20Q502 -20 424 32T314 178H311Q307 155 304 132T297 84Q293 61 289 39T280 -7L199 -425H-48L322 1484H569L486 1058Q479 1020 471 985T452 916H458Q530 1014 612 1058T812 1102Q971 1102 1059 1008T1148
748Q1148 546 1086 355Q1024 164 912 72T626 -20ZM715 926Q555 926 468 792Q440 748 419 689T383 558Q365 461 365 393Q365 280 421 217T579 153Q689 153 752 221Q784 255 809 312T851 438T878 576T888 701Q888 813 847 869T715 926Z" />
<glyph unicode="&#xff;" horiz-adv-x="1101" d="M76 -425Q-11 -425 -83 -408L-48 -233Q-4 -242 36 -242Q120 -242 183 -190T310 -28L338 20L124 1082H379L464 551Q469 518 475 471T487 374T497 287T501 233Q506 243 511 253T521 275L654 546L937 1082H1204L559
-38Q450 -216 384 -285Q317 -356 243 -390T76 -425ZM1027 1411L987 1204H784L825 1411H1027ZM608 1411L568 1204H368L407 1411H608Z" />
<glyph unicode="&#x2013;" horiz-adv-x="1139" d="M1110 630L1080 449H25L55 630H1110Z" />
<glyph unicode="&#x2014;" horiz-adv-x="2048" d="M2065 630L2030 449H-17L17 630H2065Z" />
<glyph unicode="&#x2018;" horiz-adv-x="531" d="M495 1110L449 871H192L227 1050Q249 1164 289 1249T396 1409H558Q487 1336 441 1259T381 1110H495Z" />
<glyph unicode="&#x2019;" horiz-adv-x="531" d="M521 1231Q500 1121 461 1036T352 871H190Q339 1029 367 1170H253L300 1409H556L521 1231Z" />
<glyph unicode="&#x201a;" horiz-adv-x="531" d="M318 61Q297 -50 258 -136T150 -298H-14Q58 -223 104 -145T164 0H49L96 239H353L318 61Z" />
<glyph unicode="&#x201c;" horiz-adv-x="910" d="M875 1110L829 871H571L606 1050Q627 1159 667 1245T776 1409H938Q868 1336 822 1258T761 1110H875ZM478 1110L432 871H175L210 1050Q232 1164 272 1249T379 1409H541Q470 1336 424 1259T364 1110H478Z" />
<glyph unicode="&#x201d;" horiz-adv-x="910" d="M900 1233Q878 1118 838 1033T731 871H568Q717 1026 746 1171H632L679 1409H935L900 1233ZM503 1233Q482 1120 443 1035T334 871H172Q320 1028 349 1171H235L281 1409H538L503 1233Z" />
<glyph unicode="&#x201e;" horiz-adv-x="910" d="M697 61Q676 -50 638 -135T529 -299H366Q440 -222 486 -144T543 0H429L476 238H732L697 61ZM300 61Q279 -50 240 -137T132 -299H-30Q42 -224 88 -146T146 0H32L79 238H335L300 61Z" />
<glyph unicode="&#x2022;" horiz-adv-x="717" d="M668 678Q668 599 629 533T523 427T378 388Q300 388 235 427T131 532T92 678Q92 758 131 823T235 926T378 965Q458 965 523 927T628 823T668 678Z" />
<glyph unicode="&#x2039;" horiz-adv-x="682" d="M505 172L501 140H294L77 502L91 570L442 939H654L647 898L292 530L505 172Z" />
<glyph unicode="&#x203a;" horiz-adv-x="682" d="M239 140H27L34 180L390 546L177 906L181 939H388L604 574L591 506L239 140Z" />
</font>
</defs>
</svg>
