<svg version="1.0" xmlns="http://www.w3.org/2000/svg" width="1200" height="1200" viewBox="0 0 900 900"><path d="M464.5 19c-26.7 2.4-60.6 9.9-85.1 19-16.8 6.2-47.9 21.4-62.7 30.7-80.4 50.4-136.6 135.4-151.1 228.3-3.1 20.3-3.9 33-3.3 59.3.6 27.1 1.5 36.5 6.2 59.3 10.3 49.7 33.8 99.5 66 139.9 10.5 13.3 39.5 42.2 52.2 52.3 49 38.7 105.5 62.1 168.3 69.8 16.7 2.1 54.7 2.3 71 .5 24.7-2.7 49.3-8.1 72-15.8 13.2-4.5 38-14.7 39-16.2.3-.4 5.5-3.3 11.5-6.5 13.8-7.2 35.9-21.8 49-32.2 12.3-9.8 35-31 42.6-39.5 37.9-43.2 65-97.2 76.3-152.1 5.2-25.4 6.1-35.1 6-67.8 0-26.5-.3-32.4-2.3-45-5.8-37.7-15.6-69-31.5-101-17-34.1-36.3-60.9-63-87.5-52-51.8-118.4-84.3-192.7-94.1-13.7-1.8-54.4-2.6-68.4-1.4zM523 54.1c61.5 6.2 118.1 31.4 167.1 74.4 27.1 23.8 55.2 61.4 70.7 94.5 45.4 97 35.1 210-27.2 297.9-22.2 31.4-58.9 65.9-85.6 80.6-21.8 11.9-27.9 15-38.1 19.4-41.5 17.8-79.7 25-125.8 23.8-44.3-1.1-82.6-10.5-121.6-29.8-48.3-23.8-87.9-58.4-117-102.4C173 403.2 181 259.8 265.3 158.9 328.7 83.1 424.5 44.1 523 54.1z"/><path d="M457 60.6c-34.4 4.1-62.2 12.5-94.5 28.4-30.5 15-52.9 31.1-77 55.4-16.2 16.2-24.3 26-36 43.6-9.7 14.7-16.8 27.3-22.9 40.8-45.1 100.6-30.2 215.6 38.9 301.2 47.4 58.6 114.1 95.7 190.2 105.6 17.4 2.3 52.3 2.3 69.3 0 26.3-3.5 47.7-8.9 70.5-17.8 19.6-7.7 45.8-21.6 55.1-29.1 4.3-3.5 22.9-17.4 26.1-19.5 6-4 30.5-29.1 39.3-40.2 29.4-37.1 49-79 58-124 4.4-22.4 5.4-32.6 5.4-57.5 0-35.3-4.4-61.2-16-94.5-17.9-51.6-50.1-97.1-92.8-131.3-42.6-34-97.4-56.2-152-61.6-14.8-1.5-47.5-1.2-61.6.5zm70 9.9c50.7 7.3 91.8 24.4 132.5 54.9 14.2 10.7 38.9 34.9 50.3 49.3 27.4 34.7 46.9 76.4 55.1 117.8 4.3 21.2 5.4 35.4 4.8 62-.5 25.2-1.5 34.3-5.8 54.3-11.1 51.5-39.9 103-78.1 139.7-18 17.3-27 24.9-34.3 29.1-1.1.7-6.4 3.9-11.7 7.3-33.5 21.1-68.5 34.1-110.3 40.8-15.9 2.6-62.2 2.5-78.5 0-43.8-6.9-80.5-21.1-116-44.9-17.3-11.6-27.6-20-42.9-35.1-32.3-31.9-58.1-75.1-70.6-118.7-7.8-26.9-10.9-50-10.9-79.5.1-29.3 3.1-51 11-78.4 6.7-22.8 20.6-53 34.1-73.6 32.4-49.3 79-87.2 133.3-108.5 20.8-8.1 47.6-14.7 68.5-16.9 5.5-.6 11.6-1.3 13.5-1.5 7.4-.9 46 .4 56 1.9z"/><path d="M339.5 188.4c-14 4.5-23.3 14.4-26.2 28-1.6 7.8-1.9 193.2-.3 201.7 2.3 12.4 11.6 24.5 22.7 29.7l5.8 2.7 142.5.3c88.4.2 144.9-.1 148.8-.7 12.3-1.9 20.6-8.5 26.5-20.9l3.2-6.7v-209l-3.2-6.6c-3.7-7.5-10.1-14-17.1-17.2l-4.7-2.2-147-.2c-116.6-.1-147.8.1-151 1.1zm282.4 29.9c1.3.6 3.4 2.5 4.5 4 2.1 2.8 2.1 3.3 2.4 92.5.2 49.3 0 91.7-.3 94.1-.5 3.2-1.6 5.4-4 7.8l-3.3 3.3H352.9l-3.9-3.8c-2.1-2-4.3-5-4.9-6.5-.8-1.9-1.1-31.2-1.1-91.8 0-97.7-.3-92.4 6-96.9 1.7-1.2 4.3-2.6 5.8-3 1.5-.5 61.7-.9 133.7-.9 102.1-.1 131.5.2 133.4 1.2z"/><path d="M509.2 253.6c-1.2.3-7 3.2-12.8 6.5l-10.6 5.9h-32.7l-5.8 4.9c-3.2 2.7-8.3 7.4-11.3 10.5l-5.4 5.6h-8.3c-8.2 0-8.3 0-9.8-3-3.2-6.2-11.3-8.7-17.6-5.4-3.9 2-7.3 9.2-6.4 13.5 2.6 12 19.2 14 24.1 2.9l1.8-4 5.2.6c9.8 1.2 11.7.3 23.5-11.2l10.7-10.4h32.7l11-6.2c10.6-6 11.3-6.2 19-6.5 4.4-.2 16.1 0 26 .4l18 .8 3.2 5c5.6 8.6 7.2 9.5 16.6 9.5h8.2l1.5 3.2c2.2 4.7 5.9 7 11.3 7 5.6 0 8.2-1.4 10.7-5.5 3.8-6.1 1.7-15.1-4.2-18.3-6.3-3.5-16.4 0-18.3 6.4l-.9 3.2h-6.9c-3.7 0-7.7-.4-8.7-1-1-.5-3.2-3.2-4.9-5.9-5-8.2-4.6-8.1-32.2-8.6-13.4-.2-25.4-.2-26.7.1zm98.9 10.3c2.1 2.1 2.9 3.9 2.9 6.4 0 4.3-3.8 9.2-7.7 10-4 .8-8.9-1.9-10.8-5.8-1.4-3-1.4-3.8-.1-6.8 2.9-7.1 10.5-8.9 15.7-3.8z"/><path d="M547.3 275.7c-2.8.5-7.2 4.9-7.9 8-.6 2.2-1 2.3-9.1 2.3h-8.6l-11.5 6.2-11.5 6.1-23.3-.6c-15.2-.4-24.3-.3-26.1.4-1.6.5-9.1 7.2-16.8 14.8-7.7 7.6-15.1 14.6-16.5 15.5-1.9 1.2-5 1.6-14.1 1.6h-11.7l-1.9-3.7c-3.5-7.2-11-10.1-17.4-6.8-12.6 6.6-6 26.6 7.9 24 3.7-.7 10.2-6.2 10.2-8.7 0-1 2.5-1.2 12.4-1 9.8.3 13 0 15.5-1.2 1.6-.9 9.8-8.2 18.1-16.3l15.1-14.6 25.7.2 25.7.2 10.8-6.1c10.7-5.9 10.9-6 18.8-6 6.6 0 7.9.3 7.9 1.6 0 .9.9 2.8 2 4.4 6.7 9.4 23 4.3 23-7.2 0-9.3-7.2-15-16.7-13.1zm-164.5 47.8c3.6 3 4.5 6.9 2.7 11.2-4.2 10-18.5 7.1-18.5-3.8 0-8.5 9.3-12.9 15.8-7.4z"/><path d="M574 303.9c-2.1 1.1-4.3 3.5-5.6 6.1-1.8 3.6-3.3 4.9-8.5 7.4l-6.4 3-26.5.6-26.5.5-10.6 6.2-10.6 6.3h-18.8l-1.3-3c-3.3-7.4-14.4-9.2-20.4-3.3-5.7 5.8-4.6 15.6 2.2 19.6 1.5 1 4.9 1.7 7.5 1.7 4 0 5.2-.5 8.1-3.4 1.9-1.9 3.4-4.1 3.4-4.9 0-1.4 8-2.7 17.4-2.7 3 0 6.4-1.5 14.5-6.2l10.6-6.3 26.5-.5c24.5-.5 26.8-.7 30.5-2.6 6.8-3.6 8-3.7 9.3-.9 2.6 5.6 11.2 8.1 17.3 5 9.2-4.8 8.8-19.1-.6-23.1-4.6-1.9-7.3-1.8-11.5.5zm-120.1 25.2c4.8 4.4 4.9 9.8.4 14.4-5.8 5.7-16.3 1.2-16.3-7 0-7.9 10.2-12.6 15.9-7.4zM538.2 341c-1.8 1.1-4 3.6-4.8 5.5L532 350h-19.6l-8.9 5.2c-5 2.8-10.1 5.7-11.5 6.5-1.9 1-8.6 1.3-27 1.3h-24.5l-7.8 3.4-7.7 3.4-1.5-2.9c-4.1-7.8-17.9-7.8-22 .1-.8 1.6-1.5 4.8-1.5 7.1 0 3.5.6 4.8 3.9 8 3.2 3.3 4.5 3.9 8 3.9 6.8 0 13.1-4.6 13.1-9.7 0-1.3 2.3-2.8 7.8-5.3l7.7-3.4 26.5-.6 26.5-.5 9.5-6 9.5-5.9 9.7-.4 9.6-.4 1.7 3.6c3 6.3 10.1 9 16.7 6.3 4.4-1.8 6.8-5.2 7.5-10.5 1.4-10.4-10.3-17.8-19.5-12.2zm13.5 4.5c3.1 3.1 3.5 4 3 7.2-1.5 8.7-11.1 11.9-16.8 5.5-4-4.5-3.9-8.4.5-12.8 4.7-4.7 8.6-4.6 13.3.1zM546 460.1c0 3.8-3.3 9-7.3 11.7l-4.1 2.7-44.4.3c-51.4.3-53.1.2-59.8-6.2-2.4-2.3-4.4-5-4.4-5.9 0-1.6-5.1-1.7-67.1-1.7h-67.1l.4 5.3c1 12 10.9 25.6 23.1 31.7l6 3h156.6c94.1 0 160-.4 165-1 20.8-2.4 35.2-16.1 36.8-35l.6-7H546v2.1zM121.4 582.1c-40.1 38-73.7 69.9-74.7 70.9-1.8 1.7 0 2.7 45.9 26.1l47.7 24.4 3.7 8c10.8 23.1 39.2 82.1 40 82.8.7.8 153-142.8 153-144.2 0-.3-5.3-3.5-11.7-7.1-28-15.5-49.3-31.8-73.8-56.4-21.7-21.8-35-38.6-49.1-62.3-3.7-6.2-7-11.3-7.4-11.3-.4 0-33.6 31.1-73.6 69.1zM338 650.1c0 1.3-6.7 48.5-14.9 104.9-8.2 56.4-14.8 102.6-14.7 102.8.2.1 23.3-4.3 51.3-9.8 28.1-5.5 51.9-10 53-10 1.1 0 22.2 9.9 46.8 22 24.6 12.1 45 21.9 45.2 21.6.7-.7 29.5-200.7 29-201.2-.3-.3-5.2.1-10.9.8-15.6 2-61 1.7-76.8-.5-34.8-4.9-64.8-13.3-93.5-26.4-6.6-3-12.6-5.7-13.2-6-.8-.3-1.3.3-1.3 1.8z"/></svg>